<?xml version="1.0" encoding="UTF-8"?>
<svg version="1.1" xmlns="http://www.w3.org/2000/svg" width="1080" height="1080">
<path d="M0 0 C356.4 0 712.8 0 1080 0 C1080 356.4 1080 712.8 1080 1080 C723.6 1080 367.2 1080 0 1080 C0 723.6 0 367.2 0 0 Z " fill="#000000" transform="translate(0,0)"/>
<path d="M0 0 C2 2.25 2 2.25 4 5 C7.53696471 7.63390989 10.8896794 9.45862978 15 11 C15.86625 11.515625 16.7325 12.03125 17.625 12.5625 C21.65423671 14.27865638 25.17193702 14.536959 29.51171875 14.7890625 C32 15 32 15 35 16 C37.63542653 16.09683023 40.24360446 16.13998417 42.87890625 16.1328125 C43.64677963 16.13376923 44.41465302 16.13472595 45.20579529 16.13571167 C46.82722048 16.13639159 48.44864841 16.13455043 50.07006836 16.13037109 C52.55653973 16.12501284 55.04283107 16.13032617 57.52929688 16.13671875 C59.10416707 16.13605808 60.67903715 16.13477714 62.25390625 16.1328125 C62.99975479 16.13483673 63.74560333 16.13686096 64.51405334 16.13894653 C68.38447075 16.19354979 68.38447075 16.19354979 72 15 C73.87379605 14.92966231 75.75001102 14.9156978 77.625 14.9375 C79.12933594 14.95103516 79.12933594 14.95103516 80.6640625 14.96484375 C81.82035156 14.98224609 81.82035156 14.98224609 83 15 C83.33 14.01 83.66 13.02 84 12 C85.671875 11.19140625 85.671875 11.19140625 87.75 10.5625 C92.06806312 9.08955208 95.87750478 7.24499043 98 3 C102.23184497 0.63514546 105.34542331 0.96564962 110 2 C110.99 2.66 111.98 3.32 113 4 C113 4.66 113 5.32 113 6 C114.65 6.33 116.3 6.66 118 7 C118 7.66 118 8.32 118 9 C118.66 9 119.32 9 120 9 C121.25664978 11.90600261 122 13.79604584 122 17 C122.66 17 123.32 17 124 17 C124.226875 17.680625 124.45375 18.36125 124.6875 19.0625 C126.09764477 22.21853829 127.85645145 24.64321255 129.9765625 27.3515625 C131 29 131 29 131 32 C131.99 32.33 132.98 32.66 134 33 C138.11244137 38.49396464 140.7741397 44.55672019 143 51 C143.33 51.33 143.66 51.66 144 52 C144.5 54.5 144.5 54.5 144 58 C142.86490559 59.47923061 141.66999445 60.91338602 140.4375 62.3125 C137.67693422 65.54362127 137.67693422 65.54362127 136.7578125 69.578125 C137.02863589 71.78637724 137.3979029 73.85977248 138 76 C138.66 76 139.32 76 140 76 C140.90599142 77.81198283 141.81011745 79.62491296 142.70703125 81.44140625 C143.65532541 83.31794 144.63677923 85.17781362 145.63671875 87.02734375 C146.18972656 88.07019531 146.74273437 89.11304688 147.3125 90.1875 C147.84488281 91.17105469 148.37726563 92.15460938 148.92578125 93.16796875 C150.16008401 96.42203965 150.19634214 97.76034782 149 101 C147.44140625 103.09765625 147.44140625 103.09765625 145.5625 105.0625 C142.95253381 107.80870464 142.95253381 107.80870464 141.015625 111.02734375 C139.76850512 113.44963429 138.26677169 114.75070833 136.1875 116.5 C135.4759375 117.10585938 134.764375 117.71171875 134.03125 118.3359375 C132.44552838 119.63500944 130.82305036 120.88925084 129.1875 122.125 C126.73429447 124.22774759 125.63718169 126.21995476 124 129 C122.66877875 130.95333653 121.31387849 132.89071545 119.9375 134.8125 C119.24527344 135.78832031 118.55304688 136.76414062 117.83984375 137.76953125 C116.92912109 138.87361328 116.92912109 138.87361328 116 140 C115.34 140 114.68 140 114 140 C114 140.66 114 141.32 114 142 C113.34 142 112.68 142 112 142 C111.6596875 142.7734375 111.6596875 142.7734375 111.3125 143.5625 C106.57168423 152.36687214 106.57168423 152.36687214 103.0703125 153.77734375 C99.48977154 154.3786044 97.53965184 154.26982592 94.25 152.625 C93.5075 152.08875 92.765 151.5525 92 151 C90.6768842 150.62817549 89.34386088 150.28797019 88 150 C88.02320313 150.75925781 88.04640625 151.51851562 88.0703125 152.30078125 C88.08835937 153.29464844 88.10640625 154.28851562 88.125 155.3125 C88.14820313 156.29863281 88.17140625 157.28476562 88.1953125 158.30078125 C88 161 88 161 86 164 C83.69034152 165.05352843 81.3570226 166.05719096 79 167 C78.67 167.33 78.34 167.66 78 168 C75.66702567 168.04092937 73.33294775 168.04241723 71 168 C71 168.66 71 169.32 71 170 C70.01 170 69.02 170 68 170 C68 170.66 68 171.32 68 172 C66.86111328 172.50660156 66.86111328 172.50660156 65.69921875 173.0234375 C64.70535156 173.46945312 63.71148437 173.91546875 62.6875 174.375 C61.70136719 174.81585937 60.71523437 175.25671875 59.69921875 175.7109375 C56.87254793 176.98242758 56.87254793 176.98242758 54 179 C49.17509733 179.52444594 47.00650384 178.54959336 43 176 C38.08141443 173.80129453 33.32135143 171.9312365 28 171 C28 170.01 28 169.02 28 168 C27.360625 167.9175 26.72125 167.835 26.0625 167.75 C21.86635836 166.72237348 16.12879683 165.12879683 13 162 C12.92773498 160.14712498 12.9161878 158.29166122 12.9375 156.4375 C12.94652344 155.42558594 12.95554688 154.41367187 12.96484375 153.37109375 C12.97644531 152.58863281 12.98804688 151.80617188 13 151 C12.01 151 11.02 151 10 151 C10 151.66 10 152.32 10 153 C8.68 153 7.36 153 6 153 C6 153.66 6 154.32 6 155 C3.1875 155.3125 3.1875 155.3125 0 155 C-1.88599343 152.61107499 -3 151.08148442 -3 148 C-3.66 148 -4.32 148 -5 148 C-5 147.34 -5 146.68 -5 146 C-5.88969482 145.5970874 -5.88969482 145.5970874 -6.79736328 145.18603516 C-9.00966118 143.99479783 -10.46917816 142.78886293 -12.2421875 141.0234375 C-12.83088623 140.43876709 -13.41958496 139.85409668 -14.02612305 139.25170898 C-14.63625244 138.63239502 -15.24638184 138.01308105 -15.875 137.375 C-16.50124268 136.74343994 -17.12748535 136.11187988 -17.77270508 135.46118164 C-22.76878522 130.36171176 -27.09202087 125.20267925 -30.75 119.0625 C-31.83364126 116.86104578 -31.83364126 116.86104578 -34 116 C-34 115.34 -34 114.68 -34 114 C-34.66 114 -35.32 114 -36 114 C-36 113.34 -36 112.68 -36 112 C-36.66 112 -37.32 112 -38 112 C-39.65625 110.3203125 -39.65625 110.3203125 -41.5 108.125 C-43.28933258 106.00964496 -45.04019124 103.95980876 -47 102 C-47.56760893 98.1815399 -47.84410928 94.28626176 -45.6875 91 C-44.8521875 90.01 -44.8521875 90.01 -44 89 C-43.18556774 86.76135544 -42.5022431 84.50779744 -41.84375 82.21875 C-41 80 -41 80 -39.44921875 78.046875 C-37.66708276 75.52978805 -37.51336084 73.80308474 -37.3125 70.75 C-37.24675781 69.85796875 -37.18101562 68.9659375 -37.11328125 68.046875 C-37.07589844 67.37140625 -37.03851563 66.6959375 -37 66 C-37.99 66 -38.98 66 -40 66 C-42.19419409 61.3254126 -43.90624725 57.25015399 -44 52 C-42.90313118 49.45847468 -41.50586371 47.34737578 -40 45 C-39.814375 44.236875 -39.62875 43.47375 -39.4375 42.6875 C-39 41 -39 41 -36 39 C-34.96986723 37.35178756 -33.96885372 35.68496298 -33 34 C-32.34 33.34 -31.68 32.68 -31 32 C-30.443125 30.2984375 -30.443125 30.2984375 -29.875 28.5625 C-28.10101638 23.51773409 -24.97989627 19.62224626 -21.7421875 15.41796875 C-19.84897088 13.04360494 -19.84897088 13.04360494 -19 10 C-18.01 10 -17.02 10 -16 10 C-15.88205078 8.84951172 -15.88205078 8.84951172 -15.76171875 7.67578125 C-15 5 -15 5 -13.14453125 3.41796875 C-4.62720984 -1.07609531 -4.62720984 -1.07609531 0 0 Z " fill="#8540F4" transform="translate(168,483)"/>
<path d="M0 0 C4.83788881 -0.33752713 6.96883534 0.4347134 11 3 C16.22151691 5.28045452 21.57969121 7.25625135 26.93359375 9.203125 C28.46472107 9.79357864 29.97541234 10.43762576 31.47265625 11.109375 C37.8487448 13.91754673 41.71478753 14.58381453 48.44140625 12.09765625 C50.18072574 11.4107417 51.91277243 10.70510173 53.63671875 9.98046875 C56.38070731 8.84205366 59.18278487 7.93907171 62 7 C62.66 6.62875 63.32 6.2575 64 5.875 C66.71413383 4.68756645 69.07421213 4.86700964 72 5 C72.33 4.01 72.66 3.02 73 2 C76.32091002 0.29466783 78.18492784 0 82 0 C82 1.32 82 2.64 82 4 C81.34 4 80.68 4 80 4 C80 4.99 80 5.98 80 7 C78.28515625 8.5 78.28515625 8.5 76.0625 10 C72.62594582 12.25393015 72.62594582 12.25393015 71 16 C68.96875 17.75390625 68.96875 17.75390625 66.5 19.5625 C63.2216853 21.831494 63.2216853 21.831494 61 25 C60.34 25 59.68 25 59 25 C58.505 27.475 58.505 27.475 58 30 C59.32 30 60.64 30 62 30 C62 29.34 62 28.68 62 28 C63.375 27.54166667 64.75 27.08333333 66.125 26.625 C66.94226563 26.34914063 67.75953125 26.07328125 68.6015625 25.7890625 C70.55325209 25.1469757 72.52445604 24.56444113 74.5 24 C75.325 23.67 76.15 23.34 77 23 C77.495 21.515 77.495 21.515 78 20 C80.109375 18.6484375 80.109375 18.6484375 82.75 17.375 C83.61109375 16.94960938 84.4721875 16.52421875 85.359375 16.0859375 C87.91805532 15.03369914 90.27582783 14.44096312 93 14 C93 14.99 93 15.98 93 17 C94.485 17.495 94.485 17.495 96 18 C97.16796875 19.77734375 97.16796875 19.77734375 98.1875 21.9375 C98.53167969 22.64777344 98.87585938 23.35804688 99.23046875 24.08984375 C100 26 100 26 100 28 C100.66 28 101.32 28 102 28 C102.8125 31.1875 102.8125 31.1875 103 35 C100.8125 37.5625 100.8125 37.5625 98 40 C97.29875 41.0725 96.5975 42.145 95.875 43.25 C94 46 94 46 91 47 C91 48.98 91 50.96 91 53 C91.99 53 92.98 53 94 53 C94.66 55.31 95.32 57.62 96 60 C96.66 60 97.32 60 98 60 C99.61316843 62.37230651 100.96044483 64.35868125 102 67 C101.28307503 70.72800985 100.10488967 72.84266549 98 76 C97.34 76 96.68 76 96 76 C96 77.32 96 78.64 96 80 C94.125 82.0625 94.125 82.0625 92 84 C91.34 84.99 90.68 85.98 90 87 C85.64477147 86.49357808 82.55760365 85.61588503 79 83 C79 82.34 79 81.68 79 81 C78.01 81 77.02 81 76 81 C76 80.01 76 79.02 76 78 C74.02 77.67 72.04 77.34 70 77 C70.76002917 78.31878578 71.53343653 79.6298684 72.3125 80.9375 C72.95638672 82.03384766 72.95638672 82.03384766 73.61328125 83.15234375 C74.95110254 85.29977412 74.95110254 85.29977412 78 86 C78 86.66 78 87.32 78 88 C79.485 88.495 79.485 88.495 81 89 C81 90.65 81 92.3 81 94 C80.01 94.495 80.01 94.495 79 95 C78.505 96.485 78.505 96.485 78 98 C77.34 98 76.68 98 76 98 C75.731875 98.94875 75.46375 99.8975 75.1875 100.875 C74 104 74 104 71 106 C68.67612053 106.39387788 66.34206251 106.73486085 64 107 C64.33 107.33 64.66 107.66 65 108 C65.07226502 109.85287502 65.0838122 111.70833878 65.0625 113.5625 C65.05347656 114.57441406 65.04445313 115.58632813 65.03515625 116.62890625 C65.02355469 117.41136719 65.01195312 118.19382812 65 119 C59.77228537 122.04157942 56.07328688 123.50610724 50 123 C50 123.66 50 124.32 50 125 C47.28344597 126.35827701 45.09210594 126.1323445 42.0625 126.125 C40.47115234 126.12886719 40.47115234 126.12886719 38.84765625 126.1328125 C36 126 36 126 33 125 C33 124.34 33 123.68 33 123 C31.9790625 122.814375 31.9790625 122.814375 30.9375 122.625 C27.5421065 121.90257585 24.28354851 121.13661295 21 120 C20.06614184 117.19842552 19.83645405 115.34552197 19.8125 112.4375 C19.79832031 111.65246094 19.78414062 110.86742187 19.76953125 110.05859375 C20 108 20 108 22 106 C18.7 105.67 15.4 105.34 12 105 C12 104.34 12 103.68 12 103 C11.34 103 10.68 103 10 103 C10 102.34 10 101.68 10 101 C9.34 101 8.68 101 8 101 C8 100.34 8 99.68 8 99 C6.515 98.505 6.515 98.505 5 98 C4.67 97.01 4.34 96.02 4 95 C2.515 94.505 2.515 94.505 1 94 C1 92.35 1 90.7 1 89 C2.98 88.505 2.98 88.505 5 88 C5 86.35 5 84.7 5 83 C3.948125 83.680625 2.89625 84.36125 1.8125 85.0625 C-0.58340736 86.40053697 -1.91314964 86.9919209 -4.6875 87.25 C-9.13531118 84.84577774 -10.46870935 79.59387195 -12 75 C-12.66 75 -13.32 75 -14 75 C-16.140409 72.859591 -16.93817395 71.26585201 -17.625 68.3125 C-16.92746034 64.6155398 -15.95121186 63.50294273 -13.5625 60.6875 C-10.3505712 56.82406434 -8.99658618 54.03675532 -8.77734375 49.01171875 C-9.0949217 46.14237415 -10.27837826 44.27254069 -12 42 C-12 41.34 -12 40.68 -12 40 C-12.928125 39.566875 -12.928125 39.566875 -13.875 39.125 C-16 38 -16 38 -18 36 C-18.20225023 31.82016197 -18.33650858 28.00952575 -17 24 C-16.34 24 -15.68 24 -15 24 C-15 22.68 -15 21.36 -15 20 C-14.01 20 -13.02 20 -12 20 C-11.7525 19.030625 -11.505 18.06125 -11.25 17.0625 C-10.8375 16.051875 -10.425 15.04125 -10 14 C-7.875 13.125 -7.875 13.125 -6 13 C-6 13.66 -6 14.32 -6 15 C-5.236875 15.144375 -4.47375 15.28875 -3.6875 15.4375 C-1 16 -1 16 2 17 C2 17.66 2 18.32 2 19 C2.99 19 3.98 19 5 19 C5.33 19.66 5.66 20.32 6 21 C7.68157904 21.9471169 7.68157904 21.9471169 9.6875 22.8125 C12.49063557 24.15160933 14.79370945 25.5094802 17.125 27.5625 C19.95802498 29.96441248 22.63015561 31.47554658 26 33 C26 30.36 26 27.72 26 25 C25.01 25 24.02 25 23 25 C23 24.34 23 23.68 23 23 C22.443125 22.773125 21.88625 22.54625 21.3125 22.3125 C18.37495279 20.64524348 16.38188562 18.38188562 14 16 C11.83379456 14.70480005 11.83379456 14.70480005 10 14 C10 13.34 10 12.68 10 12 C9.34 12 8.68 12 8 12 C7 10.33333333 6 8.66666667 5 7 C4.113125 6.113125 3.22625 5.22625 2.3125 4.3125 C1.549375 3.549375 0.78625 2.78625 0 2 C0 1.34 0 0.68 0 0 Z " fill="#030107" transform="translate(177,513)"/>
<path d="M0 0 C2.09375 -0.3984375 2.09375 -0.3984375 4.5 -0.375 C5.2940625 -0.38273437 6.088125 -0.39046875 6.90625 -0.3984375 C7.5971875 -0.26695312 8.288125 -0.13546875 9 0 C11.47157109 3.70735663 11.22699255 5.61147745 11 10 C10.79375 10.886875 10.5875 11.77375 10.375 12.6875 C9.92161503 15.48337396 10.51666053 16.6441079 12 19 C12.66 19 13.32 19 14 19 C14.17015625 19.63808594 14.3403125 20.27617187 14.515625 20.93359375 C14.75796875 21.75988281 15.0003125 22.58617187 15.25 23.4375 C15.48203125 24.26121094 15.7140625 25.08492188 15.953125 25.93359375 C16.80770679 28.19995468 16.80770679 28.19995468 19.109375 28.78515625 C19.73328125 28.85605469 20.3571875 28.92695313 21 29 C21 28.34 21 27.68 21 27 C21.66 27 22.32 27 23 27 C23 26.34 23 25.68 23 25 C23.66 25 24.32 25 25 25 C25.37125 23.9171875 25.37125 23.9171875 25.75 22.8125 C27.62596139 18.59158687 29.52033196 15.7062052 33.75 13.6875 C34.4925 13.460625 35.235 13.23375 36 13 C38 15 38 15 38.125 18.125 C38.08375 19.07375 38.0425 20.0225 38 21 C38.66 21 39.32 21 40 21 C40 23.31 40 25.62 40 28 C40.99 28 41.98 28 43 28 C43 28.99 43 29.98 43 31 C48.90301668 28.89784658 53.69997924 25.55578407 58 21 C58.93728064 18.20831466 58.9002411 15.99276693 59 13 C60.6875 10.5 60.6875 10.5 63 9 C66.25 8.75 66.25 8.75 69 9 C69 9.66 69 10.32 69 11 C69.99 11 70.98 11 72 11 C72 13.97 72 16.94 72 20 C71.113125 20.2475 70.22625 20.495 69.3125 20.75 C64.04360794 23.32839399 62.79362608 29.83357705 61 35 C60.63519531 36.01835937 60.27039063 37.03671875 59.89453125 38.0859375 C59.0806103 40.73740049 58.65794169 43.05932403 58.4375 45.8125 C58.10218978 49.89781022 58.10218978 49.89781022 57 51 C56.70427773 52.39077307 56.43834311 53.7879361 56.1875 55.1875 C54.83077524 61.34644477 52.40202242 65.26417016 47.1875 68.875 C43.24395194 71.19081715 40.50464882 71.46923425 36 71 C36 71.66 36 72.32 36 73 C35.01 73 34.02 73 33 73 C33 73.66 33 74.32 33 75 C19.78552197 81.60723901 -4.83648218 77.44091692 -19 75.875 C-19.9593042 75.78250977 -20.9186084 75.69001953 -21.90698242 75.59472656 C-29.08749901 74.684316 -34.04933276 72.00222991 -40 68 C-40.92039063 67.5035498 -41.84078125 67.00709961 -42.7890625 66.49560547 C-43.51867187 66.00205566 -44.24828125 65.50850586 -45 65 C-45 64.01 -45 63.02 -45 62 C-45.66 62 -46.32 62 -47 62 C-47.06058594 61.36191406 -47.12117187 60.72382813 -47.18359375 60.06640625 C-47.26738281 59.24011719 -47.35117188 58.41382813 -47.4375 57.5625 C-47.51871094 56.73878906 -47.59992188 55.91507812 -47.68359375 55.06640625 C-47.78930815 53.01337975 -47.78930815 53.01337975 -49 52 C-49.15958101 50.64947186 -49.27728276 49.29390838 -49.375 47.9375 C-49.77144857 43.95413575 -50.72790397 40.73072203 -52.23828125 37.046875 C-53.32812726 34.11826316 -53.94372087 31.13413331 -54.5703125 28.078125 C-54.99260997 26.03574086 -55.48139356 24.01983559 -56 22 C-56.804375 21.855625 -57.60875 21.71125 -58.4375 21.5625 C-61 21 -61 21 -62 20 C-62.14115161 17.32941149 -62.04247107 14.67567762 -62 12 C-59.64653604 10.82326802 -58.1193967 10.83376134 -55.5 10.8125 C-54.7059375 10.79832031 -53.911875 10.78414063 -53.09375 10.76953125 C-51 11 -51 11 -49 13 C-48.796875 14.98828125 -48.796875 14.98828125 -48.75 17.3125 C-48.46140414 20.77455892 -48.46140414 20.77455892 -46.640625 23.6328125 C-45.14477872 24.82236644 -43.57488936 25.91726357 -42 27 C-41.67 27.66 -41.34 28.32 -41 29 C-38.37418862 30.57548683 -37.12900213 31 -34 31 C-33.01 27.7 -32.02 24.4 -31 21 C-30.34 21 -29.68 21 -29 21 C-28.67 19.02 -28.34 17.04 -28 15 C-26.68 14.67 -25.36 14.34 -24 14 C-24 14.66 -24 15.32 -24 16 C-23.34 16 -22.68 16 -22 16 C-22 16.66 -22 17.32 -22 18 C-21.34 18 -20.68 18 -20 18 C-20 18.66 -20 19.32 -20 20 C-19.34 20 -18.68 20 -18 20 C-18 20.66 -18 21.32 -18 22 C-17.484375 22.103125 -16.96875 22.20625 -16.4375 22.3125 C-13.13973565 23.24263866 -10.13366668 24.61395512 -7 26 C-6.7525 25.29875 -6.505 24.5975 -6.25 23.875 C-5 21 -5 21 -2.875 18 C-0.93725719 14.8996115 -0.49141493 13.5600955 -1 10 C-1.495 9.505 -1.495 9.505 -2 9 C-2.26293056 4.96839809 -2.29404844 3.44107266 0 0 Z " fill="#8641F5" transform="translate(214,417)"/>
<path d="M0 0 C0.92425781 0.31839844 1.84851563 0.63679688 2.80078125 0.96484375 C15.48264058 5.75075509 23.58163111 13.37526579 30.1875 25.109375 C31 27 31 27 31 30 C26.81344935 30.23355931 22.62858126 30.37482637 18.4375 30.5 C16.66536133 30.60054687 16.66536133 30.60054687 14.85742188 30.703125 C6.14530161 30.89835459 6.14530161 30.89835459 2.77392578 28.25390625 C1.59583762 26.84109465 0.46439014 25.38771162 -0.61035156 23.89477539 C-2.46145139 21.37081443 -3.95376737 20.63758357 -7 20 C-14.63956504 19.18728032 -22.15367762 18.6840918 -28.4921875 23.58203125 C-34.87947109 29.5887254 -37.16605846 35.18253103 -37.4375 43.8125 C-37.25388047 51.01191573 -36.21835551 57.24790731 -31.421875 62.83984375 C-25.6275893 68.17737269 -19.43116552 70.61517982 -11.55859375 70.3515625 C-4.74171703 69.41489242 0.63481413 66.32007028 5 61 C5.33 60.01 5.66 59.02 6 58 C-2.25 57.67 -10.5 57.34 -19 57 C-19 50.73 -19 44.46 -19 38 C-1.51 38 15.98 38 34 38 C34 54.23609092 30.69379715 66.87607732 19.46484375 78.859375 C7.83812196 88.95674986 -4.91671658 92.0586494 -20.05029297 91.1953125 C-31.25457003 90.07292061 -42.34687022 83.67379574 -50.04296875 75.6171875 C-59.33266226 63.19384488 -62.25344038 50.27352969 -61 35 C-58.74481858 24.07203517 -51.76505568 13.82342942 -43 7 C-29.75187126 -0.86220724 -15.17855269 -5.4392187 0 0 Z " fill="#FAFAFA" transform="translate(686,501)"/>
<path d="M0 0 C6.93 0 13.86 0 21 0 C21 29.37 21 58.74 21 89 C14.4 89 7.8 89 1 89 C0.67 87.35 0.34 85.7 0 84 C-0.886875 84.78375 -1.77375 85.5675 -2.6875 86.375 C-8.69712912 91.68583504 -15.44323987 91.50371441 -23.046875 91.30859375 C-32.72672114 90.55295359 -39.13415444 85.3587494 -45.50390625 78.34375 C-52.73438053 69.19234374 -53.29273675 57.1960748 -52 46 C-51.10972137 42.63063779 -49.85709652 39.93395457 -48 37 C-47.4225 35.96875 -46.845 34.9375 -46.25 33.875 C-41.22134163 27.44949209 -35.04682097 22.03275448 -27 20 C-18.35122882 19.01649378 -10.65939357 19.66389703 -3 24 C-2.34 24.66 -1.68 25.32 -1 26 C-0.67 17.42 -0.34 8.84 0 0 Z " fill="#F9F9F9" transform="translate(855,501)"/>
<path d="M0 0 C1.32 0 2.64 0 4 0 C4 0.66 4 1.32 4 2 C4.56203125 2.10441406 5.1240625 2.20882812 5.703125 2.31640625 C8.42380471 3.12613235 10.39257807 4.36203338 12.75 5.9375 C13.54921875 6.46214844 14.3484375 6.98679687 15.171875 7.52734375 C15.77515625 8.01332031 16.3784375 8.49929688 17 9 C17 9.66 17 10.32 17 11 C17.53625 11.103125 18.0725 11.20625 18.625 11.3125 C21 12 21 12 27 15 C27.495 26.88 27.495 26.88 28 39 C31.3 40.32 34.6 41.64 38 43 C38 43.66 38 44.32 38 45 C48.71427001 44.44186485 48.71427001 44.44186485 58 40 C58.13358147 38.17100475 58.20347722 36.33727786 58.24609375 34.50390625 C58.29540039 32.83038086 58.29540039 32.83038086 58.34570312 31.12304688 C58.40679788 28.7533502 58.46410255 26.38355272 58.51757812 24.01367188 C58.55173828 22.89669922 58.58589844 21.77972656 58.62109375 20.62890625 C58.65867798 19.0831189 58.65867798 19.0831189 58.69702148 17.50610352 C59 15 59 15 61 13 C61.99 13 62.98 13 64 13 C64 12.34 64 11.68 64 11 C64.99 11 65.98 11 67 11 C67 10.01 67 9.02 67 8 C67.76183594 7.63648438 67.76183594 7.63648438 68.5390625 7.265625 C71.98924096 5.58576283 75.06596628 3.95214211 78.1875 1.6875 C81 0 81 0 83.625 -0.1875 C87.21007575 1.60503788 88.59851637 4.32211811 90 8 C90.1875 10.1875 90.1875 10.1875 89 12 C82.64287862 16.46351076 75.44804032 18.14558996 68 20 C67.82573244 23.91610484 67.71915845 27.83121497 67.625 31.75 C67.57472656 32.86117187 67.52445312 33.97234375 67.47265625 35.1171875 C67.41714687 38.18870671 67.42265156 40.98125965 68 44 C70.78999733 46.66804443 70.78999733 46.66804443 74 48 C74.33 48.99 74.66 49.98 75 51 C73.02 50.505 73.02 50.505 71 50 C71.76002917 51.31878578 72.53343653 52.6298684 73.3125 53.9375 C73.74175781 54.66839844 74.17101562 55.39929688 74.61328125 56.15234375 C75.95110254 58.29977412 75.95110254 58.29977412 79 59 C79 59.66 79 60.32 79 61 C80.485 61.495 80.485 61.495 82 62 C82 63.65 82 65.3 82 67 C81.01 67.495 81.01 67.495 80 68 C79.505 69.485 79.505 69.485 79 71 C78.34 71 77.68 71 77 71 C76.731875 71.94875 76.46375 72.8975 76.1875 73.875 C75 77 75 77 72 79 C69.67612053 79.39387788 67.34206251 79.73486085 65 80 C65.33 80.33 65.66 80.66 66 81 C66.07226502 82.85287502 66.0838122 84.70833878 66.0625 86.5625 C66.05347656 87.57441406 66.04445313 88.58632813 66.03515625 89.62890625 C66.02355469 90.41136719 66.01195312 91.19382812 66 92 C60.77228537 95.04157942 57.07328688 96.50610724 51 96 C51 96.66 51 97.32 51 98 C48.28344597 99.35827701 46.09210594 99.1323445 43.0625 99.125 C41.47115234 99.12886719 41.47115234 99.12886719 39.84765625 99.1328125 C37 99 37 99 34 98 C34 97.34 34 96.68 34 96 C32.9790625 95.814375 32.9790625 95.814375 31.9375 95.625 C28.5421065 94.90257585 25.28354851 94.13661295 22 93 C21.06614184 90.19842552 20.83645405 88.34552197 20.8125 85.4375 C20.79832031 84.65246094 20.78414062 83.86742187 20.76953125 83.05859375 C21 81 21 81 23 79 C19.7 78.67 16.4 78.34 13 78 C13 77.34 13 76.68 13 76 C12.34 76 11.68 76 11 76 C11 75.34 11 74.68 11 74 C10.34 74 9.68 74 9 74 C9 73.34 9 72.68 9 72 C8.01 71.67 7.02 71.34 6 71 C5.67 70.01 5.34 69.02 5 68 C4.01 67.67 3.02 67.34 2 67 C2 65.35 2 63.7 2 62 C3.98 61.505 3.98 61.505 6 61 C6 59.35 6 57.7 6 56 C4.948125 56.680625 3.89625 57.36125 2.8125 58.0625 C0.09672991 59.6356595 -0.70477974 60.02512513 -3.9375 59.75 C-4.618125 59.5025 -5.29875 59.255 -6 59 C-5.41089844 58.88527344 -4.82179687 58.77054688 -4.21484375 58.65234375 C-1.85199395 57.95640739 -0.49459765 57.0662342 1.4375 55.5625 C3.6162868 53.92491077 5.15434522 52.94387446 7.75 52 C10.75721561 50.66345973 11.38906827 48.80162041 13 46 C14.32 45.34 15.64 44.68 17 44 C17.33 36.08 17.66 28.16 18 20 C16.35 19.67 14.7 19.34 13 19 C11.37724427 18.35760544 9.77145193 17.67037328 8.1875 16.9375 C7.39730469 16.57527344 6.60710937 16.21304688 5.79296875 15.83984375 C5.20128906 15.56269531 4.60960937 15.28554688 4 15 C4 14.34 4 13.68 4 13 C3.4225 12.855625 2.845 12.71125 2.25 12.5625 C0.16666667 12.04166667 -1.91666667 11.52083333 -4 11 C-2.55172414 2.55172414 -2.55172414 2.55172414 0 0 Z " fill="#813EEC" transform="translate(176,540)"/>
<path d="M0 0 C7.7462687 5.28677092 11.80255082 11.66333772 15.3125 20.1875 C17.48428237 32.23102044 16.21642157 42.16201248 9.25 52.25 C3.66297985 59.23377519 -4.09968729 64.57093571 -13 66 C-25.10089759 66.84360543 -34.53657214 65.47050634 -44.1875 57.6875 C-52.17076664 50.25480347 -56.15160025 41.49718534 -56.5625 30.625 C-56.25831495 20.57675383 -53.00080022 12.06251988 -46.0234375 4.75 C-32.62064188 -6.84160702 -15.59235227 -8.51995906 0 0 Z " fill="#FBFBFB" transform="translate(781,526)"/>
<path d="M0 0 C7.7462687 5.28677092 11.80255082 11.66333772 15.3125 20.1875 C17.48428237 32.23102044 16.21642157 42.16201248 9.25 52.25 C3.66297985 59.23377519 -4.09968729 64.57093571 -13 66 C-25.10089759 66.84360543 -34.53657214 65.47050634 -44.1875 57.6875 C-52.17076664 50.25480347 -56.15160025 41.49718534 -56.5625 30.625 C-56.25831495 20.57675383 -53.00080022 12.06251988 -46.0234375 4.75 C-32.62064188 -6.84160702 -15.59235227 -8.51995906 0 0 Z " fill="#FBFBFB" transform="translate(603,526)"/>
<path d="M0 0 C6.25330739 3.58929676 10.20471557 8.13246739 12.5625 14.9375 C12.80300903 17.51289368 12.80300903 17.51289368 12.78955078 20.27856445 C12.78939972 21.3192659 12.78924866 22.35996735 12.78909302 23.4322052 C12.77877045 24.5438353 12.76844788 25.65546539 12.7578125 26.80078125 C12.7549826 27.94790085 12.75215271 29.09502045 12.74923706 30.27690125 C12.73805697 33.93470768 12.71295595 37.59226778 12.6875 41.25 C12.67746741 43.73241833 12.66834205 46.21484051 12.66015625 48.69726562 C12.63812467 54.77743842 12.60360935 60.85742747 12.5625 66.9375 C5.9625 66.9375 -0.6375 66.9375 -7.4375 66.9375 C-7.46328125 63.81925781 -7.4890625 60.70101562 -7.515625 57.48828125 C-7.55405418 54.46320628 -7.59921168 51.43830125 -7.64501953 48.41333008 C-7.67321852 46.31347792 -7.69443837 44.21351983 -7.70849609 42.11352539 C-7.72994014 39.09205941 -7.77659867 36.07186566 -7.828125 33.05078125 C-7.82935364 32.11414139 -7.83058228 31.17750153 -7.83184814 30.21247864 C-7.92720685 25.95423499 -8.06527894 23.54682968 -10.32543945 19.84692383 C-13.53177639 16.9482114 -15.87128863 17.23931051 -20.0234375 17.44140625 C-23.69175167 18.19525075 -25.29236292 19.96198728 -27.4375 22.9375 C-28.33192465 25.62077394 -28.58331687 27.27899739 -28.64282227 30.04174805 C-28.66276749 30.86237228 -28.68271271 31.68299652 -28.70326233 32.52848816 C-28.72833107 33.8504998 -28.72833107 33.8504998 -28.75390625 35.19921875 C-28.77468735 36.10501175 -28.79546844 37.01080475 -28.81687927 37.94404602 C-28.88226558 40.83762016 -28.94120904 43.73128507 -29 46.625 C-29.0431956 48.58659793 -29.08681023 50.54818668 -29.13085938 52.50976562 C-29.23872443 57.31891874 -29.33787907 62.12814073 -29.4375 66.9375 C-36.0375 66.9375 -42.6375 66.9375 -49.4375 66.9375 C-49.4375 44.8275 -49.4375 22.7175 -49.4375 -0.0625 C-43.1675 -0.0625 -36.8975 -0.0625 -30.4375 -0.0625 C-30.1075 1.9175 -29.7775 3.8975 -29.4375 5.9375 C-28.73625 5.174375 -28.035 4.41125 -27.3125 3.625 C-19.64459307 -3.54282604 -9.53104757 -4.3689976 0 0 Z " fill="#FAFAFA" transform="translate(449.4375,523.0625)"/>
<path d="M0 0 C6.42658563 4.52286121 11.86569378 10.25356118 14.7578125 17.64453125 C14.80152923 19.31062447 14.80829438 20.97862928 14.7578125 22.64453125 C11.5293362 22.81952858 8.30208324 22.92559743 5.0703125 23.01953125 C4.15830078 23.06980469 3.24628906 23.12007812 2.30664062 23.171875 C-4.37991095 23.3177634 -4.37991095 23.3177634 -6.89697266 21.35253906 C-8.19921875 19.74609375 -8.19921875 19.74609375 -10.2421875 16.64453125 C-13.66548601 14.36233224 -15.08356418 14.34711962 -19.1171875 14.33203125 C-20.14585937 14.31527344 -21.17453125 14.29851563 -22.234375 14.28125 C-25.6648904 14.69558498 -27.47881086 15.60182796 -30.2421875 17.64453125 C-33.86411519 22.44113819 -34.89430409 26.14104919 -34.62890625 32.14453125 C-33.84114785 37.2371108 -31.86759492 41.0683786 -28.1796875 44.64453125 C-22.37566746 46.62036786 -16.48893924 46.44694259 -10.7421875 44.39453125 C-8.18047877 42.83194551 -8.18047877 42.83194551 -6.87768555 40.55957031 C-5.2421875 38.64453125 -5.2421875 38.64453125 -3.06567383 38.19042969 C-2.24349365 38.21137695 -1.42131348 38.23232422 -0.57421875 38.25390625 C0.31845703 38.26679687 1.21113281 38.2796875 2.13085938 38.29296875 C3.05962891 38.32648437 3.98839844 38.36 4.9453125 38.39453125 C6.35586914 38.42160156 6.35586914 38.42160156 7.79492188 38.44921875 C10.11691139 38.49636575 12.4368494 38.56214894 14.7578125 38.64453125 C13.50923713 48.18527568 7.98348309 54.41885563 0.5703125 60.26953125 C-8.08467322 66.14454297 -18.05598528 66.64076421 -28.2421875 65.64453125 C-31.61297057 64.77481025 -34.30976202 63.50327339 -37.2421875 61.64453125 C-38.28632813 60.99097656 -38.28632813 60.99097656 -39.3515625 60.32421875 C-47.28973292 54.86299624 -53.03305061 47.08921198 -55.2421875 37.64453125 C-56.11970429 28.75295806 -56.23825946 20.39544662 -51.2421875 12.64453125 C-50.81808594 11.96132813 -50.39398438 11.278125 -49.95703125 10.57421875 C-45.34509734 3.81690054 -38.57945861 -2.38885023 -30.66015625 -4.91796875 C-19.76288488 -6.88968829 -9.50115126 -5.74372733 0 0 Z " fill="#FBFBFB" transform="translate(526.2421875,526.35546875)"/>
<path d="M0 0 C3.98457134 3.01831279 6.15216177 6.47150609 8.1875 10.93359375 C8.25049903 12.93260128 8.26058758 14.93492964 8.1875 16.93359375 C5.10448584 17.05003531 2.02203877 17.12091807 -1.0625 17.18359375 C-2.37154297 17.23386719 -2.37154297 17.23386719 -3.70703125 17.28515625 C-10.28403715 17.38556855 -10.28403715 17.38556855 -13.1875 14.90234375 C-13.991875 13.9278125 -13.991875 13.9278125 -14.8125 12.93359375 C-18.50682511 13.0797227 -18.50682511 13.0797227 -21.8125 13.93359375 C-21.4825 15.91359375 -21.1525 17.89359375 -20.8125 19.93359375 C-20.16925781 20.16433594 -19.52601563 20.39507813 -18.86328125 20.6328125 C-16.93992673 21.32697611 -15.01959691 22.02955019 -13.1015625 22.73828125 C-10.87850938 23.54618417 -8.64338908 24.32151385 -6.3984375 25.06640625 C1.36244928 27.76041523 6.44574006 30.45007386 10.1875 37.93359375 C11.17613995 51.69850382 11.17613995 51.69850382 7.1875 56.93359375 C0.63596128 63.87671869 -5.02487682 66.9019037 -14.57446289 67.38500977 C-23.51337295 67.59053756 -30.03960468 66.0373916 -36.90234375 60.13671875 C-41.92475099 55.00133302 -42.05435624 52.84524068 -43.8125 44.93359375 C-37.2125 44.93359375 -30.6125 44.93359375 -23.8125 44.93359375 C-23.1525 46.25359375 -22.4925 47.57359375 -21.8125 48.93359375 C-18.82655576 50.42656587 -16.10396376 50.05114603 -12.8125 49.93359375 C-11.8225 49.43859375 -11.8225 49.43859375 -10.8125 48.93359375 C-10.8125 46.95359375 -10.8125 44.97359375 -10.8125 42.93359375 C-15.56245676 40.41891076 -20.25207769 38.37893193 -25.3125 36.55859375 C-32.12710312 33.97347168 -37.47813051 31.1433518 -41.8125 25.18359375 C-43.42393216 19.94643923 -43.9586714 14.93698733 -41.96875 9.72265625 C-38.48293765 3.57537907 -33.30541507 -0.31994872 -27.0625 -3.44140625 C-17.93286131 -5.197106 -8.16911341 -4.80639647 0 0 Z " fill="#FBFBFB" transform="translate(926.8125,525.06640625)"/>
<path d="M0 0 C7.59 0 15.18 0 23 0 C23 29.37 23 58.74 23 89 C15.41 89 7.82 89 0 89 C0 59.63 0 30.26 0 0 Z " fill="#FCFCFC" transform="translate(365,501)"/>
<path d="M0 0 C4.89845576 2.05666871 7.64546294 5.28408129 10 10 C10.80952334 15.35306425 10.91177459 21.07278076 8.4375 26 C4.74590544 30.543501 1.82324567 32.63240962 -3.91015625 33.37890625 C-8.6579504 33.56128744 -12.1301817 33.38831174 -16.5 31.4375 C-21.34665863 26.71200783 -23.22684266 23.13896017 -23.5 16.4375 C-23.30573712 11.54743451 -22.35016569 8.71234576 -19 5 C-12.87804345 -0.3931522 -8.06345824 -0.91770816 0 0 Z " fill="#030303" transform="translate(846,540)"/>
<path d="M0 0 C4.15025124 2.79900665 6.72084426 6.24614482 8.6875 10.8125 C9.47340613 16.42611521 8.92984268 21.05706407 5.6875 25.8125 C1.69700931 29.73914284 -1.42890642 31.96282079 -7.0625 32.125 C-11.97947375 32.04717739 -14.61612421 31.25098911 -18.3125 27.8125 C-22.17565015 23.27304239 -24.17158406 19.07735195 -23.796875 13.05078125 C-22.62495298 7.63536738 -19.58503701 3.96935182 -15.5625 0.3125 C-10.15633102 -2.18265491 -5.56162056 -1.9937885 0 0 Z " fill="#030303" transform="translate(768.3125,541.1875)"/>
<path d="M0 0 C4.15025124 2.79900665 6.72084426 6.24614482 8.6875 10.8125 C9.47340613 16.42611521 8.92984268 21.05706407 5.6875 25.8125 C1.69700931 29.73914284 -1.42890642 31.96282079 -7.0625 32.125 C-11.97947375 32.04717739 -14.61612421 31.25098911 -18.3125 27.8125 C-22.17565015 23.27304239 -24.17158406 19.07735195 -23.796875 13.05078125 C-22.62495298 7.63536738 -19.58503701 3.96935182 -15.5625 0.3125 C-10.15633102 -2.18265491 -5.56162056 -1.9937885 0 0 Z " fill="#030303" transform="translate(590.3125,541.1875)"/>
<path d="M0 0 C0 0.66 0 1.32 0 2 C0.556875 2.226875 1.11375 2.45375 1.6875 2.6875 C4.62199324 4.35302319 6.62221176 6.62221176 9 9 C10.485 9.495 10.485 9.495 12 10 C12 10.66 12 11.32 12 12 C12.99 12.33 13.98 12.66 15 13 C15 14.65 15 16.3 15 18 C14.01 18.495 14.01 18.495 13 19 C12.505 20.485 12.505 20.485 12 22 C11.34 22 10.68 22 10 22 C9.67 22.99 9.34 23.98 9 25 C8.34 25 7.68 25 7 25 C7 25.66 7 26.32 7 27 C3.81914517 28.59042741 0.465652 27.90931062 -3 27.6875 C-3.76368896 27.64117432 -4.52737793 27.59484863 -5.31420898 27.54711914 C-11.00029226 27.16138738 -16.4572513 26.33886453 -22 25 C-22.107834 22.06152347 -22.18721916 19.12698849 -22.25 16.1875 C-22.28351563 15.35412109 -22.31703125 14.52074219 -22.3515625 13.66210938 C-22.45005905 7.53069917 -22.45005905 7.53069917 -20.38671875 5.09765625 C-19.59910156 4.73542969 -18.81148437 4.37320313 -18 4 C-16.99066406 3.53078125 -15.98132813 3.0615625 -14.94140625 2.578125 C-13.82636719 2.13984375 -12.71132812 1.7015625 -11.5625 1.25 C-10.45003906 0.80140625 -9.33757812 0.3528125 -8.19140625 -0.109375 C-4.91015835 -1.02507209 -3.21329823 -0.98501105 0 0 Z " fill="#05020A" transform="translate(243,589)"/>
<path d="M0 0 C0.99 0 1.98 0 3 0 C3 0.66 3 1.32 3 2 C3.90492188 2.16435547 3.90492188 2.16435547 4.828125 2.33203125 C9.28507879 3.21623337 12.52045473 3.92194072 16 7 C16.99 7.33 17.98 7.66 19 8 C19 14.27 19 20.54 19 27 C11.125 29.25 11.125 29.25 7.37890625 29.4140625 C6.58935547 29.45273437 5.79980469 29.49140625 4.98632812 29.53125 C3.7865332 29.57765625 3.7865332 29.57765625 2.5625 29.625 C1.73556641 29.66367187 0.90863281 29.70234375 0.05664062 29.7421875 C-1.96191073 29.83553092 -3.98092331 29.91880961 -6 30 C-6 29.34 -6 28.68 -6 28 C-7.32 27.67 -8.64 27.34 -10 27 C-10.33 25.68 -10.66 24.36 -11 23 C-11.66 23 -12.32 23 -13 23 C-15.74375671 20.04518508 -16 19.22528092 -16 15 C-14.37064759 13.62131719 -12.70250393 12.28725907 -11 11 C-10.67 10.01 -10.34 9.02 -10 8 C-9.34 8 -8.68 8 -8 8 C-8 7.34 -8 6.68 -8 6 C-3.64705882 2 -3.64705882 2 0 2 C0 1.34 0 0.68 0 0 Z " fill="#040208" transform="translate(197,587)"/>
<path d="M0 0 C1.23556641 0.01740234 1.23556641 0.01740234 2.49609375 0.03515625 C3.32238281 0.04417969 4.14867187 0.05320312 5 0.0625 C5.63808594 0.07410156 6.27617187 0.08570313 6.93359375 0.09765625 C6.98751368 1.88899603 7.02634946 3.68079524 7.05859375 5.47265625 C7.08179688 6.47039063 7.105 7.468125 7.12890625 8.49609375 C6.93359375 11.09765625 6.93359375 11.09765625 4.93359375 13.09765625 C3.13922943 13.65927262 1.32255654 14.15134927 -0.50390625 14.59765625 C-3.97439359 15.44794875 -6.05599762 16.09071716 -9.06640625 18.09765625 C-11.328125 18.29296875 -11.328125 18.29296875 -13.75390625 18.22265625 C-14.56214844 18.20460938 -15.37039062 18.1865625 -16.203125 18.16796875 C-16.81800781 18.14476562 -17.43289062 18.1215625 -18.06640625 18.09765625 C-18.06640625 17.10765625 -18.06640625 16.11765625 -18.06640625 15.09765625 C-20.37640625 15.09765625 -22.68640625 15.09765625 -25.06640625 15.09765625 C-25.06640625 14.43765625 -25.06640625 13.77765625 -25.06640625 13.09765625 C-25.82953125 13.13890625 -26.59265625 13.18015625 -27.37890625 13.22265625 C-30.06640625 13.09765625 -30.06640625 13.09765625 -33.06640625 11.09765625 C-33.359375 8.71484375 -33.359375 8.71484375 -33.25390625 5.97265625 C-33.22683594 5.06257812 -33.19976562 4.1525 -33.171875 3.21484375 C-33.13707031 2.51617188 -33.10226563 1.8175 -33.06640625 1.09765625 C-30.42640625 1.09765625 -27.78640625 1.09765625 -25.06640625 1.09765625 C-24.72609375 2.05671875 -24.72609375 2.05671875 -24.37890625 3.03515625 C-23.25174885 5.31391554 -23.25174885 5.31391554 -20.8359375 5.71875 C-18.00200672 6.10646691 -15.30091217 6.23053368 -12.44140625 6.22265625 C-11.02988281 6.22652344 -11.02988281 6.22652344 -9.58984375 6.23046875 C-6.93963118 6.20313623 -6.93963118 6.20313623 -4.06640625 5.09765625 C-3.40460778 3.11720066 -3.40460778 3.11720066 -3.06640625 1.09765625 C-2.06640625 0.09765625 -2.06640625 0.09765625 0 0 Z " fill="#06030C" transform="translate(232.06640625,619.90234375)"/>
<path d="M0 0 C1.05128687 3.23529832 0.91901775 5.39722097 0.125 8.6875 C-0.14957031 9.86892578 -0.14957031 9.86892578 -0.4296875 11.07421875 C-1 13 -1 13 -2 14 C-2.16025901 15.32955625 -2.27761003 16.66436608 -2.375 18 C-2.93344673 23.62950331 -4.46691096 28.93382193 -7 34 C-5.02 34 -3.04 34 -1 34 C-1 34.66 -1 35.32 -1 36 C0.11375 36.185625 0.11375 36.185625 1.25 36.375 C3.80141485 36.95486701 5.7267573 37.73708739 8 39 C8 39.66 8 40.32 8 41 C8.66 41 9.32 41 10 41 C9.505 41.99 9.505 41.99 9 43 C5.31979695 42.36548223 5.31979695 42.36548223 3.6875 40.5 C1.04371734 38.14997097 -1.54801187 38.23806815 -5 38 C-7.760165 38.04979584 -7.760165 38.04979584 -10 39 C-10.44279297 39.93199219 -10.44279297 39.93199219 -10.89453125 40.8828125 C-12.2150713 43.41190334 -13.4461094 44.23474845 -15.875 45.6875 C-16.55304688 46.10386719 -17.23109375 46.52023437 -17.9296875 46.94921875 C-20 48 -20 48 -22.1953125 48.51953125 C-22.79085937 48.67808594 -23.38640625 48.83664062 -24 49 C-24.495 49.99 -24.495 49.99 -25 51 C-27.43359375 51.37890625 -27.43359375 51.37890625 -30.4375 51.5625 C-34.36535217 51.73109366 -34.36535217 51.73109366 -38 53 C-40.59115308 53.09883491 -43.15480998 53.13984524 -45.74609375 53.1328125 C-46.89646873 53.13424759 -46.89646873 53.13424759 -48.07008362 53.13571167 C-49.693289 53.13639262 -51.3164971 53.13454426 -52.93969727 53.13037109 C-55.42405325 53.12502891 -57.90822784 53.13031515 -60.39257812 53.13671875 C-61.9687504 53.13605781 -63.54492256 53.13477632 -65.12109375 53.1328125 C-65.86491806 53.13483673 -66.60874237 53.13686096 -67.37510681 53.13894653 C-70.51980835 53.12466415 -72.99382041 53.00205986 -76 52 C-77.76889504 51.85004657 -79.54024818 51.72795239 -81.3125 51.625 C-85.82050409 51.24883542 -89.14850353 50.53387925 -93 48 C-93.33 47.34 -93.66 46.68 -94 46 C-93.26136719 46.20496094 -92.52273437 46.40992188 -91.76171875 46.62109375 C-90.74722656 46.89050781 -89.73273438 47.15992188 -88.6875 47.4375 C-87.70136719 47.70433594 -86.71523437 47.97117187 -85.69921875 48.24609375 C-76.05348416 50.21190872 -66.30820643 50.15555516 -56.5 50.125 C-55.25863281 50.12886719 -54.01726562 50.13273437 -52.73828125 50.13671875 C-45.43559018 50.12902361 -38.25760622 49.82031131 -31 49 C-31 48.34 -31 47.68 -31 47 C-32.501073 47.24230347 -32.501073 47.24230347 -34.0324707 47.48950195 C-39.9805477 48.33536322 -45.97279934 48.18596556 -51.96801758 48.18530273 C-54.1644261 48.18747716 -56.36032143 48.20563948 -58.55664062 48.22460938 C-66.87327801 48.25666282 -74.83450151 47.72993696 -83 46 C-83 45.67 -83 45.34 -83 45 C-79.22026295 44.93368882 -75.74835989 44.87576248 -72.01171875 45.49609375 C-66.50083056 46.32638024 -60.93438374 46.14721532 -55.375 46.125 C-53.64080811 46.12209961 -53.64080811 46.12209961 -51.87158203 46.11914062 C-44.20525646 46.08025268 -36.6236212 45.86421617 -29 45 C-29 44.34 -29 43.68 -29 43 C-28.01 43 -27.02 43 -26 43 C-26 42.34 -26 41.68 -26 41 C-24.5459375 40.938125 -24.5459375 40.938125 -23.0625 40.875 C-17.88579139 40.12643317 -13.91415581 37.35051737 -10 34 C-7.14246399 29.80299398 -6.58712749 25.99058368 -6 21 C-5.505 20.505 -5.505 20.505 -5 20 C-4.83974099 18.67044375 -4.72238997 17.33563392 -4.625 16 C-4.06655327 10.37049669 -2.53308904 5.06617807 0 0 Z " fill="#361A63" transform="translate(276,447)"/>
<path d="M0 0 C1.32 0.33 2.64 0.66 4 1 C4 1.66 4 2.32 4 3 C4.639375 2.835 5.27875 2.67 5.9375 2.5 C11.37004297 1.61305421 16.31249363 0.87499575 21 4 C21.33 4.99 21.66 5.98 22 7 C22.99 7.33 23.98 7.66 25 8 C25 8.66 25 9.32 25 10 C25.99 10 26.98 10 28 10 C28 10.66 28 11.32 28 12 C31.16568908 12.11255783 33.96645272 11.95199126 37 11 C39.49696882 8.61400757 41.27031878 5.97776492 43 3 C40.36 3 37.72 3 35 3 C34.505 1.515 34.505 1.515 34 0 C34.59425781 0.06058594 35.18851563 0.12117187 35.80078125 0.18359375 C38.53345666 0.45983621 41.26670549 0.72995488 44 1 C44.93457031 1.09539063 45.86914062 1.19078125 46.83203125 1.2890625 C52.25318323 1.81980465 57.55322171 2.1027694 63 2 C63.33 1.34 63.66 0.68 64 0 C64 0.99 64 1.98 64 3 C60.55549263 5.29633824 58.06187717 5.54016485 54 6 C54.495 6.495 54.495 6.495 55 7 C55.07226502 8.85287502 55.0838122 10.70833878 55.0625 12.5625 C55.05347656 13.57441406 55.04445312 14.58632813 55.03515625 15.62890625 C55.02355469 16.41136719 55.01195312 17.19382812 55 18 C49.77228537 21.04157942 46.07328688 22.50610724 40 22 C40 22.66 40 23.32 40 24 C37.28344597 25.35827701 35.09210594 25.1323445 32.0625 25.125 C30.47115234 25.12886719 30.47115234 25.12886719 28.84765625 25.1328125 C26 25 26 25 23 24 C23 23.34 23 22.68 23 22 C22.319375 21.87625 21.63875 21.7525 20.9375 21.625 C17.5421065 20.90257585 14.28354851 20.13661295 11 19 C10.06614184 16.19842552 9.83645405 14.34552197 9.8125 11.4375 C9.79832031 10.65246094 9.78414062 9.86742187 9.76953125 9.05859375 C10 7 10 7 12 5 C8.7 4.67 5.4 4.34 2 4 C2 3.34 2 2.68 2 2 C1.34 2 0.68 2 0 2 C0 1.34 0 0.68 0 0 Z M41 8 C41 8.99 41 9.98 41 11 C37.94583187 12.01805604 35.82063039 12.13375515 32.625 12.125 C31.22121094 12.12886719 31.22121094 12.12886719 29.7890625 12.1328125 C27.06360692 12.0030289 24.62903533 11.73207814 22 11 C20.6875 8.9375 20.6875 8.9375 20 7 C17.36 7 14.72 7 12 7 C11.91909029 8.62418745 11.86085005 10.24951745 11.8125 11.875 C11.77769531 12.77992188 11.74289063 13.68484375 11.70703125 14.6171875 C11.80371094 15.40351562 11.90039062 16.18984375 12 17 C15.22791555 19.1519437 16.28400809 19.20086443 20 19 C20 19.66 20 20.32 20 21 C22.31 21 24.62 21 27 21 C27 21.99 27 22.98 27 24 C33.18394613 24.37860895 37.33522641 23.78088885 43 21 C44.45305975 20.4443416 45.91154596 19.90267526 47.375 19.375 C50.76347036 18.37331787 50.76347036 18.37331787 52 17 C52.07226502 15.14712498 52.0838122 13.29166122 52.0625 11.4375 C52.05347656 10.42558594 52.04445312 9.41367187 52.03515625 8.37109375 C52.02355469 7.58863281 52.01195312 6.80617188 52 6 C50.54207116 5.94600264 49.08357288 5.90720823 47.625 5.875 C46.40683594 5.84019531 46.40683594 5.84019531 45.1640625 5.8046875 C42.78657757 5.78629949 42.78657757 5.78629949 41 8 Z " fill="#44217D" transform="translate(187,614)"/>
<path d="M0 0 C3.89916124 0.41776728 6.03110103 2.5966056 9 5 C28.30491908 15.93755031 54.64391227 12.40603896 76 12 C76 12.66 76 13.32 76 14 C67.44644526 15.9434892 59.24935037 16.27381239 50.5 16.1875 C49.25863281 16.18685547 48.01726562 16.18621094 46.73828125 16.18554688 C31.57747912 16.11365688 14.46076093 15.85269469 2 6 C0.125 3.25 0.125 3.25 -1 1 C-0.67 0.67 -0.34 0.34 0 0 Z " fill="#11081F" transform="translate(169,482)"/>
<path d="M0 0 C0.7940625 -0.01417969 1.588125 -0.02835937 2.40625 -0.04296875 C4.5 0.1875 4.5 0.1875 6.5 2.1875 C6.9140625 4.5703125 6.9140625 4.5703125 7.125 7.3125 C7.19976562 8.22257812 7.27453125 9.13265625 7.3515625 10.0703125 C7.40054688 10.76898438 7.44953125 11.46765625 7.5 12.1875 C6.18 12.1875 4.86 12.1875 3.5 12.1875 C3.68464366 16.52934202 3.68464366 16.52934202 5.5 20.1875 C5.81923492 22.2447917 6.01161352 24.30363521 6.21875 26.375 C6.31998043 28.2042533 6.31998043 28.2042533 7.5 29.1875 C7.82097751 31.50567089 8.01220956 33.82529357 8.21875 36.15625 C8.29065837 38.17930593 8.29065837 38.17930593 9.5 39.1875 C9.68452333 40.57874735 9.82269658 41.97627264 9.9375 43.375 C10.31784452 47.21525269 11.1075673 50.56717498 12.5 54.1875 C11.84 54.1875 11.18 54.1875 10.5 54.1875 C10.5 53.1975 10.5 52.2075 10.5 51.1875 C9.84 51.1875 9.18 51.1875 8.5 51.1875 C8.43941406 50.54941406 8.37882813 49.91132813 8.31640625 49.25390625 C8.23261719 48.42761719 8.14882812 47.60132813 8.0625 46.75 C7.98128906 45.92628906 7.90007812 45.10257812 7.81640625 44.25390625 C7.71069185 42.20087975 7.71069185 42.20087975 6.5 41.1875 C6.34041899 39.83697186 6.22271724 38.48140838 6.125 37.125 C5.72855143 33.14163575 4.77209603 29.91822203 3.26171875 26.234375 C2.17187274 23.30576316 1.55627913 20.32163331 0.9296875 17.265625 C0.50739003 15.22324086 0.01860644 13.20733559 -0.5 11.1875 C-1.304375 11.043125 -2.10875 10.89875 -2.9375 10.75 C-5.5 10.1875 -5.5 10.1875 -6.5 9.1875 C-6.64115161 6.51691149 -6.54247107 3.86317762 -6.5 1.1875 C-4.14653604 0.01076802 -2.6193967 0.02126134 0 0 Z " fill="#783ADD" transform="translate(158.5,427.8125)"/>
<path d="M0 0 C0.66 0 1.32 0 2 0 C2 7.92 2 15.84 2 24 C3.32 24.33 4.64 24.66 6 25 C5.01 25 4.02 25 3 25 C3 25.66 3 26.32 3 27 C0.36107824 28.78305524 -1.97178863 29.99059621 -5 31 C-5 31.66 -5 32.32 -5 33 C-5.66 33 -6.32 33 -7 33 C-7.103125 33.598125 -7.20625 34.19625 -7.3125 34.8125 C-8.09824033 37.31258286 -8.96918853 38.37535082 -11 40 C-11.66 40 -12.32 40 -13 40 C-12.690625 40.763125 -12.38125 41.52625 -12.0625 42.3125 C-11.32106407 44.18789677 -10.63771783 46.08684652 -10 48 C-9.34 48 -8.68 48 -8 48 C-7.67 49.32 -7.34 50.64 -7 52 C-7.66 52 -8.32 52 -9 52 C-9 51.34 -9 50.68 -9 50 C-9.99 49.67 -10.98 49.34 -12 49 C-12.495 47.515 -12.495 47.515 -13 46 C-13.99 45.67 -14.98 45.34 -16 45 C-16 43.35 -16 41.7 -16 40 C-14.02 39.505 -14.02 39.505 -12 39 C-12 37.35 -12 35.7 -12 34 C-13.051875 34.680625 -14.10375 35.36125 -15.1875 36.0625 C-17.90327009 37.6356595 -18.70477974 38.02512513 -21.9375 37.75 C-22.618125 37.5025 -23.29875 37.255 -24 37 C-23.41089844 36.88527344 -22.82179687 36.77054688 -22.21484375 36.65234375 C-19.85199395 35.95640739 -18.49459765 35.0662342 -16.5625 33.5625 C-14.3837132 31.92491077 -12.84565478 30.94387446 -10.25 30 C-7.24278439 28.66345973 -6.61093173 26.80162041 -5 24 C-3.68 23.34 -2.36 22.68 -1 22 C-0.67 14.74 -0.34 7.48 0 0 Z " fill="#592BA3" transform="translate(194,562)"/>
<path d="M0 0 C3.58507575 1.79253788 4.97351637 4.50961811 6.375 8.1875 C6.5625 10.375 6.5625 10.375 5.375 12.1875 C0.67535166 15.47725384 -2.94741324 16.72402353 -8.625 17.1875 C-6.3225881 14.58704125 -4.12603323 13.34010817 -0.9375 12 C-0.12925781 11.65582031 0.67898438 11.31164062 1.51171875 10.95703125 C2.12660156 10.70308594 2.74148438 10.44914063 3.375 10.1875 C3.375 9.5275 3.375 8.8675 3.375 8.1875 C3.375 7.1975 3.375 6.2075 3.375 5.1875 C-1.15479704 3.63783259 -3.78012634 4.43933619 -7.9375 6.4375 C-11.87473931 8.31453402 -11.87473931 8.31453402 -13.625 12.1875 C-15.275 12.1875 -16.925 12.1875 -18.625 12.1875 C-20.56397212 15.46674407 -20.91825528 18.04283219 -21.0390625 21.828125 C-21.07773438 22.89804687 -21.11640625 23.96796875 -21.15625 25.0703125 C-21.1871875 26.18148437 -21.218125 27.29265625 -21.25 28.4375 C-21.28867188 29.56414063 -21.32734375 30.69078125 -21.3671875 31.8515625 C-21.46137336 34.63004548 -21.54699586 37.40852334 -21.625 40.1875 C-22.615 40.1875 -23.605 40.1875 -24.625 40.1875 C-24.68284708 36.06255849 -24.71854407 31.93772056 -24.75 27.8125 C-24.76675781 26.636875 -24.78351563 25.46125 -24.80078125 24.25 C-24.80722656 23.12851562 -24.81367188 22.00703125 -24.8203125 20.8515625 C-24.83078613 19.81467285 -24.84125977 18.7777832 -24.85205078 17.70947266 C-24.625 15.1875 -24.625 15.1875 -22.625 13.1875 C-21.635 13.1875 -20.645 13.1875 -19.625 13.1875 C-19.625 12.5275 -19.625 11.8675 -19.625 11.1875 C-18.635 11.1875 -17.645 11.1875 -16.625 11.1875 C-16.625 10.1975 -16.625 9.2075 -16.625 8.1875 C-16.11710938 7.94515625 -15.60921875 7.7028125 -15.0859375 7.453125 C-11.63575904 5.77326283 -8.55903372 4.13964211 -5.4375 1.875 C-2.625 0.1875 -2.625 0.1875 0 0 Z " fill="#6933C0" transform="translate(259.625,539.8125)"/>
<path d="M0 0 C1.32 0 2.64 0 4 0 C4.33 0.66 4.66 1.32 5 2 C6.89533342 2.46523063 6.89533342 2.46523063 9.0625 2.625 C10.361875 2.74875 11.66125 2.8725 13 3 C11.43926002 6.51166495 9.83930448 9.37910355 7 12 C3.95602593 12.42584093 1.05261163 12.29352035 -2 12 C-2 11.34 -2 10.68 -2 10 C-2.99 10 -3.98 10 -5 10 C-5 9.34 -5 8.68 -5 8 C-6.32 7.67 -7.64 7.34 -9 7 C-9 6.01 -9 5.02 -9 4 C-10.32 3.67 -11.64 3.34 -13 3 C-10.86264735 0.86264735 -6.36198992 1.49004051 -3.46875 1.28125 C-1.0586395 1.26614735 -1.0586395 1.26614735 0 0 Z " fill="#833FF0" transform="translate(217,614)"/>
<path d="M0 0 C1.05128687 3.23529832 0.91901775 5.39722097 0.125 8.6875 C-0.05804688 9.47511719 -0.24109375 10.26273437 -0.4296875 11.07421875 C-1 13 -1 13 -2 14 C-2.16025901 15.32955625 -2.27761003 16.66436608 -2.375 18 C-2.93344673 23.62950331 -4.46691096 28.93382193 -7 34 C-5.02 34 -3.04 34 -1 34 C-1 34.66 -1 35.32 -1 36 C0.11375 36.185625 0.11375 36.185625 1.25 36.375 C3.80141485 36.95486701 5.7267573 37.73708739 8 39 C8 39.66 8 40.32 8 41 C8.66 41 9.32 41 10 41 C9.505 41.99 9.505 41.99 9 43 C5.31979695 42.36548223 5.31979695 42.36548223 3.6875 40.5 C1.04371734 38.14997097 -1.54801187 38.23806815 -5 38 C-7.760165 38.04979584 -7.760165 38.04979584 -10 39 C-11.36020151 40.96758273 -11.36020151 40.96758273 -12 43 C-13.65 43 -15.3 43 -17 43 C-17 43.66 -17 44.32 -17 45 C-18.65 45 -20.3 45 -22 45 C-22 45.66 -22 46.32 -22 47 C-24.31 47 -26.62 47 -29 47 C-28.01 46.505 -28.01 46.505 -27 46 C-27 45.34 -27 44.68 -27 44 C-25.02 44 -23.04 44 -21 44 C-21 43.34 -21 42.68 -21 42 C-19.730447 41.35165346 -18.45930294 40.70642185 -17.1875 40.0625 C-16.12595703 39.52302734 -16.12595703 39.52302734 -15.04296875 38.97265625 C-13 38 -13 38 -10 37 C-9.87625 36.2575 -9.7525 35.515 -9.625 34.75 C-9 32 -9 32 -8 30.125 C-6.61276026 27.17711555 -6.42410143 24.21105372 -6 21 C-5.67 20.67 -5.34 20.34 -5 20 C-4.83974099 18.67044375 -4.72238997 17.33563392 -4.625 16 C-4.06655327 10.37049669 -2.53308904 5.06617807 0 0 Z " fill="#07030E" transform="translate(276,447)"/>
<path d="M0 0 C0 0.66 0 1.32 0 2 C0.99 2 1.98 2 3 2 C3 4.97 3 7.94 3 11 C2.071875 11.350625 1.14375 11.70125 0.1875 12.0625 C-3.9857645 14.59919019 -4.46185496 16.4710174 -6 21 C-6.33 21 -6.66 21 -7 21 C-7.33 18.69 -7.66 16.38 -8 14 C-9.32 13.67 -10.64 13.34 -12 13 C-11.67 12.67 -11.34 12.34 -11 12 C-10.896875 10.741875 -10.79375 9.48375 -10.6875 8.1875 C-10.33588996 5.22012436 -10.0336313 4.04982415 -8.3125 1.5 C-5.37616329 -0.40465084 -3.43370148 -0.31215468 0 0 Z " fill="#7739DA" transform="translate(283,426)"/>
<path d="M0 0 C4.7578125 0.8671875 4.7578125 0.8671875 6.9375 2.0625 C9.68621982 3.3119181 12.01865753 3.13551557 15 3 C15 3.66 15 4.32 15 5 C10.17639811 5.19294408 6.50353262 4.75747614 2 3 C2.05800781 3.68707031 2.11601562 4.37414062 2.17578125 5.08203125 C2.31135407 7.78961406 2.34393561 10.30946573 2 13 C-0.125 14.9375 -0.125 14.9375 -3 16 C-4.03125 16.556875 -5.0625 17.11375 -6.125 17.6875 C-9 19 -9 19 -12 19 C-12 19.66 -12 20.32 -12 21 C-13.2375 21.37125 -14.475 21.7425 -15.75 22.125 C-19.77427326 23.43684971 -23.33690984 25.18505446 -27.0625 27.1875 C-33.53807266 30.50345398 -37.41405853 31.02455471 -44.5 29 C-45.325 28.67 -46.15 28.34 -47 28 C-47 27.34 -47 26.68 -47 26 C-48.32 25.67 -49.64 25.34 -51 25 C-49 24 -49 24 -47.08984375 24.5234375 C-46.37957031 24.80445313 -45.66929687 25.08546875 -44.9375 25.375 C-44.22464844 25.65085937 -43.51179687 25.92671875 -42.77734375 26.2109375 C-41 27 -41 27 -40 28 C-35.31565023 28.55766069 -32.76324308 27.51028917 -28.8125 25.0234375 C-25.99680418 23.43354029 -23.13040301 22.76662931 -20 22 C-20 21.34 -20 20.68 -20 20 C-19.01 20 -18.02 20 -17 20 C-17 19.34 -17 18.68 -17 18 C-15.9275 17.896875 -14.855 17.79375 -13.75 17.6875 C-10.01335718 17.00244882 -8.85304431 16.26275928 -6 14 C-4.68 14 -3.36 14 -2 14 C-0.99740493 10.99221479 -0.69685358 8.46179353 -0.4375 5.3125 C-0.35371094 4.31863281 -0.26992187 3.32476563 -0.18359375 2.30078125 C-0.09271484 1.16189453 -0.09271484 1.16189453 0 0 Z " fill="#2C1552" transform="translate(256,633)"/>
<path d="M0 0 C0.53625 0.226875 1.0725 0.45375 1.625 0.6875 C-1.02238916 2.1481285 -2.26948334 2.6875 -5.375 2.6875 C-5.54926756 6.60360484 -5.65584155 10.51871497 -5.75 14.4375 C-5.80027344 15.54867187 -5.85054687 16.65984375 -5.90234375 17.8046875 C-5.95785313 20.87620671 -5.95234844 23.66875965 -5.375 26.6875 C-2.58500267 29.35554443 -2.58500267 29.35554443 0.625 30.6875 C0.955 31.6775 1.285 32.6675 1.625 33.6875 C0.305 33.3575 -1.015 33.0275 -2.375 32.6875 C-1.715 34.3375 -1.055 35.9875 -0.375 37.6875 C-2.41333424 36.4135411 -4.41352126 35.07688077 -6.375 33.6875 C-6.375 33.0275 -6.375 32.3675 -6.375 31.6875 C-11.86635054 32.16089229 -15.44080374 33.10292101 -20.375 35.6875 C-21.035 35.3575 -21.695 35.0275 -22.375 34.6875 C-21.715 34.0275 -21.055 33.3675 -20.375 32.6875 C-19.385 32.6875 -18.395 32.6875 -17.375 32.6875 C-17.375 32.0275 -17.375 31.3675 -17.375 30.6875 C-15.725 30.6875 -14.075 30.6875 -12.375 30.6875 C-12.375 30.0275 -12.375 29.3675 -12.375 28.6875 C-10.725 28.6875 -9.075 28.6875 -7.375 28.6875 C-7.705 28.0275 -8.035 27.3675 -8.375 26.6875 C-8.45971364 24.87408158 -8.48221083 23.05755839 -8.47265625 21.2421875 C-8.46943359 20.16582031 -8.46621094 19.08945312 -8.46289062 17.98046875 C-8.45451172 16.85253906 -8.44613281 15.72460938 -8.4375 14.5625 C-8.43298828 13.42683594 -8.42847656 12.29117188 -8.42382812 11.12109375 C-8.41201615 8.30984362 -8.39554507 5.4986977 -8.375 2.6875 C-2.671875 -0.3515625 -2.671875 -0.3515625 0 0 Z " fill="#492387" transform="translate(249.375,557.3125)"/>
<path d="M0 0 C0.89138672 0.09087891 0.89138672 0.09087891 1.80078125 0.18359375 C4.53345666 0.45983621 7.26670549 0.72995488 10 1 C10.93457031 1.09539063 11.86914062 1.19078125 12.83203125 1.2890625 C18.25318323 1.81980465 23.55322171 2.1027694 29 2 C29.33 1.34 29.66 0.68 30 0 C30 0.99 30 1.98 30 3 C26.55549263 5.29633824 24.06187717 5.54016485 20 6 C20.33 6.33 20.66 6.66 21 7 C21.07226502 8.85287502 21.0838122 10.70833878 21.0625 12.5625 C21.05347656 13.57441406 21.04445312 14.58632813 21.03515625 15.62890625 C21.02355469 16.41136719 21.01195312 17.19382812 21 18 C19.35 18.33 17.7 18.66 16 19 C16.33 18.34 16.66 17.68 17 17 C17.2275015 15.12943209 17.40962811 13.25314042 17.5625 11.375 C17.64628906 10.37210938 17.73007813 9.36921875 17.81640625 8.3359375 C17.90728516 7.17964844 17.90728516 7.17964844 18 6 C16.56138706 6.08746284 15.12402492 6.19565348 13.6875 6.3125 C12.88699219 6.37050781 12.08648437 6.42851563 11.26171875 6.48828125 C8.63727666 7.08206694 7.69179328 7.95780294 6 10 C5.34 9.67 4.68 9.34 4 9 C5.65 7.02 7.3 5.04 9 3 C6.36 3 3.72 3 1 3 C0.67 2.01 0.34 1.02 0 0 Z " fill="#6531BA" transform="translate(221,614)"/>
<path d="M0 0 C0.73863281 0.20496094 1.47726563 0.40992188 2.23828125 0.62109375 C3.76001953 1.02521484 3.76001953 1.02521484 5.3125 1.4375 C6.29863281 1.70433594 7.28476563 1.97117187 8.30078125 2.24609375 C17.8224081 4.18661538 27.44221989 4.16072275 37.125 4.125 C38.3936792 4.12306641 39.6623584 4.12113281 40.96948242 4.11914062 C50.34505137 4.07612521 59.65458139 3.75737112 69 3 C69 3.66 69 4.32 69 5 C67.84371094 5.09087891 67.84371094 5.09087891 66.6640625 5.18359375 C65.66117187 5.26738281 64.65828125 5.35117187 63.625 5.4375 C62.12839844 5.55931641 62.12839844 5.55931641 60.6015625 5.68359375 C58.02072387 5.84965626 58.02072387 5.84965626 56 7 C53.40884692 7.09883491 50.84519002 7.13984524 48.25390625 7.1328125 C47.10353127 7.13424759 47.10353127 7.13424759 45.92991638 7.13571167 C44.306711 7.13639262 42.6835029 7.13454426 41.06030273 7.13037109 C38.57594675 7.12502891 36.09177216 7.13031515 33.60742188 7.13671875 C32.0312496 7.13605781 30.45507744 7.13477632 28.87890625 7.1328125 C28.13508194 7.13483673 27.39125763 7.13686096 26.62489319 7.13894653 C23.48019165 7.12466415 21.00617959 7.00205986 18 6 C16.23110496 5.85004657 14.45975182 5.72795239 12.6875 5.625 C8.17949591 5.24883542 4.85149647 4.53387925 1 2 C0.67 1.34 0.34 0.68 0 0 Z " fill="#472281" transform="translate(182,493)"/>
<path d="M0 0 C0.845625 0.309375 1.69125 0.61875 2.5625 0.9375 C7.03219265 2.31904136 11.32249068 3 16 3 C14.02 3.99 14.02 3.99 12 5 C12 10.94 12 16.88 12 23 C7.31489886 24.87404046 4.88523811 25.19157797 0 25 C3 23 3 23 7 23 C7 16.73 7 10.46 7 4 C5.35 3.67 3.7 3.34 2 3 C1.34 2.01 0.68 1.02 0 0 Z " fill="#5C2CAA" transform="translate(209,591)"/>
<path d="M0 0 C3.89916124 0.41776728 6.03110103 2.5966056 9 5 C13.71746387 7.72859227 18.07926585 8.81126189 23.375 9.6875 C24.11105469 9.81705078 24.84710938 9.94660156 25.60546875 10.08007812 C27.40219837 10.39508916 29.20091563 10.69872815 31 11 C31 11.33 31 11.66 31 12 C29.02 12 27.04 12 25 12 C25 12.66 25 13.32 25 14 C16.26356477 13.41352634 8.98794719 11.52535359 2 6 C0.125 3.25 0.125 3.25 -1 1 C-0.67 0.67 -0.34 0.34 0 0 Z " fill="#160A29" transform="translate(169,482)"/>
<path d="M0 0 C0 3.86695678 -1.41909971 6.5088452 -3 10 C-3.66 10 -4.32 10 -5 10 C-5.66 12.64 -6.32 15.28 -7 18 C-7.66 18 -8.32 18 -9 18 C-9 19.65 -9 21.3 -9 23 C-8.34 23 -7.68 23 -7 23 C-7 23.99 -7 24.98 -7 26 C-6.34 26 -5.68 26 -5 26 C-5 26.99 -5 27.98 -5 29 C-4.34 29 -3.68 29 -3 29 C-3 30.32 -3 31.64 -3 33 C-2.34 33 -1.68 33 -1 33 C-0.75 39.625 -0.75 39.625 -3 43 C-3.66 42.67 -4.32 42.34 -5 42 C-4.67 38.7 -4.34 35.4 -4 32 C-4.99 32 -5.98 32 -7 32 C-9.19419409 27.3254126 -10.90624725 23.25015399 -11 18 C-9.90313118 15.45847468 -8.50586371 13.34737578 -7 11 C-6.814375 10.236875 -6.62875 9.47375 -6.4375 8.6875 C-6 7 -6 7 -3 5 C-1.94895617 3.36504293 -0.94011682 1.70116376 0 0 Z " fill="#572AA0" transform="translate(135,517)"/>
<path d="M0 0 C0.99 0 1.98 0 3 0 C3 0.66 3 1.32 3 2 C3.66 2 4.32 2 5 2 C5 2.66 5 3.32 5 4 C5.66 4 6.32 4 7 4 C7 4.66 7 5.32 7 6 C7.99 6.33 8.98 6.66 10 7 C10.6875 9.0625 10.6875 9.0625 11 11 C10.34 11 9.68 11 9 11 C9 10.34 9 9.68 9 9 C8.34 9 7.68 9 7 9 C7 8.34 7 7.68 7 7 C6.34 7 5.68 7 5 7 C5 6.34 5 5.68 5 5 C4.34 5 3.68 5 3 5 C3 4.34 3 3.68 3 3 C2.01 3.33 1.02 3.66 0 4 C-1.22520264 7.00847418 -1.22520264 7.00847418 -2 10 C-2.66 10 -3.32 10 -4 10 C-3.938125 10.70125 -3.87625 11.4025 -3.8125 12.125 C-4.04256101 15.65260212 -5.29200568 17.93984351 -7 21 C-9.92879371 20.37240135 -12.36095629 19.41377341 -15 18 C-15 17.34 -15 16.68 -15 16 C-16.32 15.34 -17.64 14.68 -19 14 C-17.68 13.67 -16.36 13.34 -15 13 C-15 13.66 -15 14.32 -15 15 C-14.4225 15.28875 -13.845 15.5775 -13.25 15.875 C-11.16666667 16.91666667 -9.08333333 17.95833333 -7 19 C-7 17.02 -7 15.04 -7 13 C-6.34 13 -5.68 13 -5 13 C-5 11.02 -5 9.04 -5 7 C-4.34 6.67 -3.68 6.34 -3 6 C-1.95191959 4.02477154 -0.9479589 2.02518491 0 0 Z " fill="#371A65" transform="translate(187,428)"/>
<path d="M0 0 C2.09375 -0.3984375 2.09375 -0.3984375 4.5 -0.375 C5.2940625 -0.38273437 6.088125 -0.39046875 6.90625 -0.3984375 C7.5971875 -0.26695312 8.288125 -0.13546875 9 0 C11.47342266 3.71013399 11.38503486 5.61060262 11 10 C10.01 11.32 9.02 12.64 8 14 C8 10.7 8 7.4 8 4 C5.69 3.67 3.38 3.34 1 3 C1 7.95 1 12.9 1 18 C0.34 18 -0.32 18 -1 18 C-1 18.99 -1 19.98 -1 21 C-1.99 21 -2.98 21 -4 21 C-2.125 16.125 -2.125 16.125 -1 15 C-0.83333333 12.5 -0.83333333 12.5 -1 10 C-1.33 9.67 -1.66 9.34 -2 9 C-2.26293056 4.96839809 -2.29404844 3.44107266 0 0 Z " fill="#6D35C8" transform="translate(214,417)"/>
<path d="M0 0 C3.58507575 1.79253788 4.97351637 4.50961811 6.375 8.1875 C6.5625 10.375 6.5625 10.375 5.375 12.1875 C0.67535166 15.47725384 -2.94741324 16.72402353 -8.625 17.1875 C-6.3225881 14.58704125 -4.12603323 13.34010817 -0.9375 12 C-0.12925781 11.65582031 0.67898438 11.31164062 1.51171875 10.95703125 C2.12660156 10.70308594 2.74148438 10.44914063 3.375 10.1875 C3.375 9.5275 3.375 8.8675 3.375 8.1875 C3.375 7.1975 3.375 6.2075 3.375 5.1875 C-1.91386321 3.78088744 -4.66480056 4.70740028 -9.5 7.125 C-11.22863281 7.97384766 -11.22863281 7.97384766 -12.9921875 8.83984375 C-14.29542969 9.50693359 -14.29542969 9.50693359 -15.625 10.1875 C-15.955 9.5275 -16.285 8.8675 -16.625 8.1875 C-16.11710938 7.94515625 -15.60921875 7.7028125 -15.0859375 7.453125 C-11.63575904 5.77326283 -8.55903372 4.13964211 -5.4375 1.875 C-2.625 0.1875 -2.625 0.1875 0 0 Z " fill="#582BA3" transform="translate(259.625,539.8125)"/>
<path d="M0 0 C0.66 0.33 1.32 0.66 2 1 C0.7934375 1.8971875 0.7934375 1.8971875 -0.4375 2.8125 C-3.22327984 4.80947276 -3.22327984 4.80947276 -4 8 C-6.03125 9.75390625 -6.03125 9.75390625 -8.5 11.5625 C-11.7783147 13.831494 -11.7783147 13.831494 -14 17 C-14.66 17 -15.32 17 -16 17 C-16.33 18.65 -16.66 20.3 -17 22 C-15.68 22 -14.36 22 -13 22 C-13 21.34 -13 20.68 -13 20 C-7.555 18.515 -7.555 18.515 -2 17 C-3.93751373 20.87502745 -9.1286529 22.36920884 -13.0859375 23.703125 C-14.71485906 24.16853116 -16.35647772 24.58911943 -18 25 C-18.30031949 15.99041534 -18.30031949 15.99041534 -16 13 C-13.9375 11.875 -13.9375 11.875 -12 11 C-11.67 10.34 -11.34 9.68 -11 9 C-10.01 8.67 -9.02 8.34 -8 8 C-7.67 7.01 -7.34 6.02 -7 5 C-5.37109375 3.61328125 -5.37109375 3.61328125 -3.4375 2.3125 C-2.79683594 1.87550781 -2.15617188 1.43851563 -1.49609375 0.98828125 C-1.00238281 0.66214844 -0.50867188 0.33601562 0 0 Z " fill="#492386" transform="translate(252,521)"/>
<path d="M0 0 C1.32 0.33 2.64 0.66 4 1 C3.01 1 2.02 1 1 1 C1 1.66 1 2.32 1 3 C-0.98 3.99 -0.98 3.99 -3 5 C-3.00616333 6.11242065 -3.00616333 6.11242065 -3.01245117 7.24731445 C-3.04531841 10.6031908 -3.11595525 13.95723488 -3.1875 17.3125 C-3.19330078 18.47974609 -3.19910156 19.64699219 -3.20507812 20.84960938 C-3.24858398 22.52700195 -3.24858398 22.52700195 -3.29296875 24.23828125 C-3.3086792 25.26993408 -3.32438965 26.30158691 -3.34057617 27.36450195 C-4 30 -4 30 -6.34106445 31.78588867 C-12.64844611 34.66593724 -18.18030434 35.27835492 -25 35 C-25 34.67 -25 34.34 -25 34 C-23.865625 33.855625 -22.73125 33.71125 -21.5625 33.5625 C-18.19222799 33.38828522 -18.19222799 33.38828522 -17 32 C-15.2984375 31.7834375 -15.2984375 31.7834375 -13.5625 31.5625 C-9.95941003 31.35152449 -9.95941003 31.35152449 -8 29 C-7.01 29 -6.02 29 -5 29 C-5 20.42 -5 11.84 -5 3 C-3.35 2.67 -1.7 2.34 0 2 C0 1.34 0 0.68 0 0 Z " fill="#271349" transform="translate(239,550)"/>
<path d="M0 0 C0.99 0.33 1.98 0.66 3 1 C3.33 8.92 3.66 16.84 4 25 C8.95 26.98 8.95 26.98 14 29 C10.81452856 30.59273572 8.39809153 29.76164121 5 29 C2.24557922 26.87979659 1.13758344 25.69283968 0.45410156 22.25097656 C0.4331543 21.22456055 0.41220703 20.19814453 0.390625 19.140625 C0.35839844 18.02558594 0.32617188 16.91054688 0.29296875 15.76171875 C0.27878906 14.60285156 0.26460937 13.44398438 0.25 12.25 C0.22035156 11.07566406 0.19070312 9.90132812 0.16015625 8.69140625 C0.08949273 5.79420178 0.03677734 2.89780045 0 0 Z " fill="#502793" transform="translate(200,554)"/>
<path d="M0 0 C0.99 0.33 1.98 0.66 3 1 C3.0825 1.969375 3.165 2.93875 3.25 3.9375 C3.67963985 7.07766183 4.61929471 9.52854598 6 12.375 C7.89977717 16.36658958 8.55725635 19.85656159 8.82421875 24.25 C8.81627962 26.02724483 8.81627962 26.02724483 10 27 C10.18452333 28.39124735 10.32269658 29.78877264 10.4375 31.1875 C10.81784452 35.02775269 11.6075673 38.37967498 13 42 C12.34 42 11.68 42 11 42 C11 41.01 11 40.02 11 39 C10.34 39 9.68 39 9 39 C8.93941406 38.36191406 8.87882813 37.72382813 8.81640625 37.06640625 C8.73261719 36.24011719 8.64882812 35.41382813 8.5625 34.5625 C8.48128906 33.73878906 8.40007812 32.91507812 8.31640625 32.06640625 C8.21069185 30.01337975 8.21069185 30.01337975 7 29 C6.84041899 27.64947186 6.72271724 26.29390838 6.625 24.9375 C6.22867552 20.95538258 5.27429865 17.73262207 3.76171875 14.05078125 C2.66228854 11.09077683 2.05313517 8.07036292 1.4296875 4.98046875 C0.99505898 2.80536206 0.99505898 2.80536206 0 0 Z " fill="#4B248B" transform="translate(158,440)"/>
<path d="M0 0 C2.0625 1.4375 2.0625 1.4375 3 4 C3.21821838 7.0186876 3.17422184 9.98015475 3 13 C3.66 13 4.32 13 5 13 C4.67 13.99 4.34 14.98 4 16 C1.60175053 13.60175053 1.68563796 12.72664782 1.4375 9.4375 C1.41550697 6.41952212 1.41550697 6.41952212 0 4 C-1.85287502 3.92773498 -3.70833878 3.9161878 -5.5625 3.9375 C-6.57441406 3.94652344 -7.58632812 3.95554687 -8.62890625 3.96484375 C-9.41136719 3.97644531 -10.19382813 3.98804688 -11 4 C-10.67 6.64 -10.34 9.28 -10 12 C-7.525 12.99 -7.525 12.99 -5 14 C-5 14.33 -5 14.66 -5 15 C-7.375 15.125 -7.375 15.125 -10 15 C-12.51012963 12.48987037 -12.29721609 11.53194763 -12.3125 8.0625 C-12.32925781 7.18722656 -12.34601563 6.31195313 -12.36328125 5.41015625 C-12 3 -12 3 -10.76171875 1.2109375 C-7.47709615 -1.04678535 -3.8099419 -0.61015829 0 0 Z " fill="#2E1654" transform="translate(163,425)"/>
<path d="M0 0 C1.32 0.33 2.64 0.66 4 1 C0.34530266 4.30101696 -3.31736666 6.17736182 -7.8046875 8.05078125 C-10.19349102 9.03553904 -10.19349102 9.03553904 -13.0625 10.75 C-18.91722217 13.24137114 -24.17429176 12.33028329 -30 10 C-30 9.34 -30 8.68 -30 8 C-31.32 7.67 -32.64 7.34 -34 7 C-32 6 -32 6 -30.08984375 6.5234375 C-29.02443359 6.94496094 -29.02443359 6.94496094 -27.9375 7.375 C-27.22464844 7.65085937 -26.51179687 7.92671875 -25.77734375 8.2109375 C-24 9 -24 9 -23 10 C-18.31565023 10.55766069 -15.76324308 9.51028917 -11.8125 7.0234375 C-8.99680418 5.43354029 -6.13040301 4.76662931 -3 4 C-3 3.34 -3 2.68 -3 2 C-2.01 2 -1.02 2 0 2 C0 1.34 0 0.68 0 0 Z " fill="#3F1E73" transform="translate(239,651)"/>
<path d="M0 0 C1.32 0.33 2.64 0.66 4 1 C1.71334143 3.28665857 0.3919171 3.60280348 -2.6875 4.4375 C-5.84516746 5.32092203 -8.70173122 6.27148761 -11.625 7.75 C-17.18809467 9.81040543 -21.64387705 8.69441471 -27 6.4375 C-27.99 5.963125 -28.98 5.48875 -30 5 C-26.2733862 3.81839075 -23.85701041 4.47078883 -20.10546875 5.51953125 C-17.00812626 6.22634596 -14.16559397 6.13189975 -11 6 C-11 5.34 -11 4.68 -11 4 C-9.35 4 -7.7 4 -6 4 C-6 3.34 -6 2.68 -6 2 C-4.02 2 -2.04 2 0 2 C0 1.34 0 0.68 0 0 Z " fill="#5F2EAF" transform="translate(236,519)"/>
<path d="M0 0 C0.33 0.66 0.66 1.32 1 2 C-0.32 1.67 -1.64 1.34 -3 1 C-2.34 2.65 -1.68 4.3 -1 6 C-3.03833424 4.7260411 -5.03852126 3.38938077 -7 2 C-7 1.34 -7 0.68 -7 0 C-12.49135054 0.47339229 -16.06580374 1.41542101 -21 4 C-21.66 3.67 -22.32 3.34 -23 3 C-22.34 2.34 -21.68 1.68 -21 1 C-20.01 1 -19.02 1 -18 1 C-18 0.34 -18 -0.32 -18 -1 C-16.35 -1 -14.7 -1 -13 -1 C-13 -1.66 -13 -2.32 -13 -3 C-7.94150105 -4.8969371 -4.25486753 -2.81338204 0 0 Z " fill="#6430B8" transform="translate(250,589)"/>
<path d="M0 0 C0.33 0.99 0.66 1.98 1 3 C0.2884375 3.804375 0.2884375 3.804375 -0.4375 4.625 C-2.46807934 7.71148059 -2.7155632 9.94829914 -2.63671875 13.60546875 C-1.40358543 18.24295786 2.39971034 21.05065557 6 24 C5.67 24.66 5.34 25.32 5 26 C3.27006756 24.27006756 1.54192746 22.53897309 -0.17578125 20.796875 C-2.04446135 18.9019342 -2.04446135 18.9019342 -4.4375 17 C-6.72992886 14.06569107 -6.27709092 11.60218192 -6 8 C-5.34 8 -4.68 8 -4 8 C-3.71125 6.865625 -3.4225 5.73125 -3.125 4.5625 C-2.75375 3.386875 -2.3825 2.21125 -2 1 C-1.34 0.67 -0.68 0.34 0 0 Z " fill="#2E1655" transform="translate(124,569)"/>
<path d="M0 0 C1.05128687 3.23529832 0.91901775 5.39722097 0.125 8.6875 C-0.05804688 9.47511719 -0.24109375 10.26273437 -0.4296875 11.07421875 C-1 13 -1 13 -2 14 C-2.16025901 15.32955625 -2.27761003 16.66436608 -2.375 18 C-2.99701657 24.1806726 -4.54088556 29.81132834 -8 35 C-8.66 34.67 -9.32 34.34 -10 34 C-9.2884375 32.7315625 -9.2884375 32.7315625 -8.5625 31.4375 C-6.94216555 27.87276421 -6.45459005 24.86401543 -6 21 C-5.67 20.67 -5.34 20.34 -5 20 C-4.83974099 18.67044375 -4.72238997 17.33563392 -4.625 16 C-4.06655327 10.37049669 -2.53308904 5.06617807 0 0 Z " fill="#3B1D6D" transform="translate(276,447)"/>
<path d="M0 0 C2.97 0.495 2.97 0.495 6 1 C6 1.66 6 2.32 6 3 C6.66 3 7.32 3 8 3 C8 3.66 8 4.32 8 5 C8.928125 5.28875 9.85625 5.5775 10.8125 5.875 C14 7 14 7 17 9 C17.34057617 11.52197266 17.34057617 11.52197266 17.29296875 14.6640625 C17.28330078 15.78554688 17.27363281 16.90703125 17.26367188 18.0625 C17.23853516 19.238125 17.21339844 20.41375 17.1875 21.625 C17.16719727 23.40003906 17.16719727 23.40003906 17.14648438 25.2109375 C17.11103916 28.14107539 17.06162769 31.07031459 17 34 C16.67 34 16.34 34 16 34 C16 26.08 16 18.16 16 10 C14.02 9.34 12.04 8.68 10 8 C8.65278717 7.36184656 7.31252882 6.70674629 6 6 C6 5.34 6 4.68 6 4 C5.195625 3.71125 4.39125 3.4225 3.5625 3.125 C1 2 1 2 0 0 Z " fill="#1E0E37" transform="translate(187,545)"/>
<path d="M0 0 C3.3 0 6.6 0 10 0 C10 1.32 10 2.64 10 4 C9.34 4 8.68 4 8 4 C8 4.66 8 5.32 8 6 C7.01 5.67 6.02 5.34 5 5 C5.66 5 6.32 5 7 5 C7 3.68 7 2.36 7 1 C5.51800098 1.44909061 4.03944764 1.90956564 2.5625 2.375 C1.32693359 2.75785156 1.32693359 2.75785156 0.06640625 3.1484375 C-2.17798016 3.80882227 -2.17798016 3.80882227 -3 6 C-5.64860427 6.59355614 -8.29197322 6.74209269 -11 7 C-11 6.34 -11 5.68 -11 5 C-9.02 5 -7.04 5 -5 5 C-5 4.01 -5 3.02 -5 2 C-3.35 2 -1.7 2 0 2 C0 1.34 0 0.68 0 0 Z " fill="#5F2EAE" transform="translate(252,512)"/>
<path d="M0 0 C1.32 0.33 2.64 0.66 4 1 C4 1.66 4 2.32 4 3 C4.639375 2.835 5.27875 2.67 5.9375 2.5 C11.37004297 1.61305421 16.31249363 0.87499575 21 4 C21 4.66 21 5.32 21 6 C18.03 6 15.06 6 12 6 C12 5.67 12 5.34 12 5 C8.7 4.67 5.4 4.34 2 4 C2 3.34 2 2.68 2 2 C1.34 2 0.68 2 0 2 C0 1.34 0 0.68 0 0 Z " fill="#5D2DAB" transform="translate(187,614)"/>
<path d="M0 0 C1.32 0.33 2.64 0.66 4 1 C4 1.66 4 2.32 4 3 C4.99 3.33 5.98 3.66 7 4 C7 5.65 7 7.3 7 9 C6.01 9.495 6.01 9.495 5 10 C4.67 10.99 4.34 11.98 4 13 C3.34 13 2.68 13 2 13 C1.67 13.99 1.34 14.98 1 16 C0.34 16 -0.32 16 -1 16 C-1 16.66 -1 17.32 -1 18 C-1.66 17.67 -2.32 17.34 -3 17 C-2.525625 16.5875 -2.05125 16.175 -1.5625 15.75 C0.16266518 13.817815 0.56584875 12.51807725 1 10 C1.66 10 2.32 10 3 10 C3 9.34 3 8.68 3 8 C3.66 8 4.32 8 5 8 C5 7.01 5 6.02 5 5 C4.34 5 3.68 5 3 5 C3 4.34 3 3.68 3 3 C2.01 2.67 1.02 2.34 0 2 C0 1.34 0 0.68 0 0 Z " fill="#341961" transform="translate(251,598)"/>
<path d="M0 0 C3.7372512 1.21677946 7.3441622 2.53766488 11 4 C11 11.92 11 19.84 11 28 C10.67 28 10.34 28 10 28 C9.67 20.41 9.34 12.82 9 5 C7.35 4.67 5.7 4.34 4 4 C1.6875 2.9375 1.6875 2.9375 0 2 C0 1.34 0 0.68 0 0 Z " fill="#0C0516" transform="translate(183,556)"/>
<path d="M0 0 C0.66 0 1.32 0 2 0 C1.835 1.11375 1.67 2.2275 1.5 3.375 C0.87905495 8.25510338 0.90942126 13.08861948 1 18 C0.34 18 -0.32 18 -1 18 C-1 18.99 -1 19.98 -1 21 C-1.99 21 -2.98 21 -4 21 C-2.125 16.125 -2.125 16.125 -1 15 C-0.83333333 12.5 -0.83333333 12.5 -1 10 C-1.33 9.67 -1.66 9.34 -2 9 C-2.26293056 4.96839809 -2.29404844 3.44107266 0 0 Z " fill="#5B2CA7" transform="translate(214,417)"/>
<path d="M0 0 C1.41623216 -0.05447047 2.83308191 -0.09300508 4.25 -0.125 C5.03890625 -0.14820313 5.8278125 -0.17140625 6.640625 -0.1953125 C9.20731941 0.0171622 10.7916067 0.71345895 13 2 C13 2.66 13 3.32 13 4 C13.99 4 14.98 4 16 4 C16 4.66 16 5.32 16 6 C17.41750563 5.88490339 18.83401169 5.75746342 20.25 5.625 C21.03890625 5.55539062 21.8278125 5.48578125 22.640625 5.4140625 C25.085877 4.98492887 26.84836903 4.21399362 29 3 C29 3.66 29 4.32 29 5 C25.67098317 7.21934455 24.51206363 7.27129898 20.625 7.25 C19.68914062 7.25515625 18.75328125 7.2603125 17.7890625 7.265625 C14.79449895 6.98042847 12.6707348 6.37666742 10 5 C9.34 4.01 8.68 3.02 8 2 C6.03638136 1.42251197 6.03638136 1.42251197 3.875 1.3125 C2.59625 1.209375 1.3175 1.10625 0 1 C0 0.67 0 0.34 0 0 Z " fill="#3B1C6C" transform="translate(199,620)"/>
<path d="M0 0 C0.66 0.33 1.32 0.66 2 1 C0.71034824 2.37562854 -0.62689293 3.70766393 -2 5 C-2.66 5 -3.32 5 -4 5 C-3.690625 5.763125 -3.38125 6.52625 -3.0625 7.3125 C-2.32106407 9.18789677 -1.63771783 11.08684652 -1 13 C-0.34 13 0.32 13 1 13 C1.33 14.32 1.66 15.64 2 17 C1.34 17 0.68 17 0 17 C0 16.34 0 15.68 0 15 C-0.99 14.67 -1.98 14.34 -3 14 C-3.33 13.01 -3.66 12.02 -4 11 C-4.99 10.67 -5.98 10.34 -7 10 C-7.375 7.75 -7.375 7.75 -7 5 C-4.0625 2.75 -4.0625 2.75 -1 1 C-0.67 0.67 -0.34 0.34 0 0 Z " fill="#5A2CA7" transform="translate(185,597)"/>
<path d="M0 0 C0.99 0 1.98 0 3 0 C3 0.66 3 1.32 3 2 C3.66 2 4.32 2 5 2 C5 2.66 5 3.32 5 4 C5.66 4 6.32 4 7 4 C7 4.66 7 5.32 7 6 C7.99 6.33 8.98 6.66 10 7 C10.6875 9.0625 10.6875 9.0625 11 11 C10.34 11 9.68 11 9 11 C9 10.34 9 9.68 9 9 C8.34 9 7.68 9 7 9 C7 8.34 7 7.68 7 7 C6.34 7 5.68 7 5 7 C5 6.34 5 5.68 5 5 C4.34 5 3.68 5 3 5 C3 4.34 3 3.68 3 3 C2.01 3.33 1.02 3.66 0 4 C-1.22520264 7.00847418 -1.22520264 7.00847418 -2 10 C-2.6875 8.375 -2.6875 8.375 -3 6 C-1.5625 2.75 -1.5625 2.75 0 0 Z " fill="#3E1E72" transform="translate(187,428)"/>
<path d="M0 0 C-3.6441774 2.4294516 -5.71241272 2.16179575 -10 2 C-10 2.66 -10 3.32 -10 4 C-12.71655403 5.35827701 -14.90789406 5.1323445 -17.9375 5.125 C-18.99839844 5.12757813 -20.05929688 5.13015625 -21.15234375 5.1328125 C-24 5 -24 5 -27 4 C-27 3.34 -27 2.68 -27 2 C-26.42894531 2.15984375 -25.85789063 2.3196875 -25.26953125 2.484375 C-18.48340405 4.02614572 -13.1344062 3.0672031 -7 0 C-3.86650268 -1.04449911 -3.01031744 -0.93423645 0 0 Z " fill="#622FB4" transform="translate(237,634)"/>
<path d="M0 0 C1.875 2 1.875 2 3 4 C0.36 3.34 -2.28 2.68 -5 2 C-5 2.66 -5 3.32 -5 4 C-6.98 4 -8.96 4 -11 4 C-11 4.66 -11 5.32 -11 6 C-11.99 6 -12.98 6 -14 6 C-14 6.66 -14 7.32 -14 8 C-14.66 8 -15.32 8 -16 8 C-14.59239025 3.77717074 -12.17197981 3.0257406 -8.35546875 1.0234375 C-5.32740263 -0.29223965 -3.24478782 -0.69531168 0 0 Z " fill="#532899" transform="translate(168,483)"/>
<path d="M0 0 C2.5722047 1.28610235 3.00974907 2.33393981 4 5 C4.0625 7 4.0625 7 3 9 C-1.69964834 12.28975384 -5.32241324 13.53652353 -11 14 C-8.6975881 11.39954125 -6.50103323 10.15260817 -3.3125 8.8125 C-2.50425781 8.46832031 -1.69601562 8.12414062 -0.86328125 7.76953125 C-0.24839844 7.51558594 0.36648438 7.26164063 1 7 C1 4.57202689 0.49914315 2.37092995 0 0 Z " fill="#3E1E72" transform="translate(262,543)"/>
<path d="M0 0 C0.66 0.33 1.32 0.66 2 1 C0.7934375 1.8971875 0.7934375 1.8971875 -0.4375 2.8125 C-3.22327984 4.80947276 -3.22327984 4.80947276 -4 8 C-5.7421875 9.60546875 -5.7421875 9.60546875 -7.875 11.1875 C-8.92300781 11.98220703 -8.92300781 11.98220703 -9.9921875 12.79296875 C-12 14 -12 14 -15 14 C-15.33 14.66 -15.66 15.32 -16 16 C-16 15.01 -16 14.02 -16 13 C-15.360625 12.71125 -14.72125 12.4225 -14.0625 12.125 C-11.84793921 11.17176549 -11.84793921 11.17176549 -11 9 C-10.01 8.67 -9.02 8.34 -8 8 C-7.67 7.01 -7.34 6.02 -7 5 C-5.37109375 3.61328125 -5.37109375 3.61328125 -3.4375 2.3125 C-2.79683594 1.87550781 -2.15617188 1.43851563 -1.49609375 0.98828125 C-1.00238281 0.66214844 -0.50867188 0.33601562 0 0 Z " fill="#351962" transform="translate(252,521)"/>
<path d="M0 0 C2.76276177 0.52268466 5.3260876 1.10869587 8 2 C8 2.66 8 3.32 8 4 C8.99 4 9.98 4 11 4 C11.33 4.66 11.66 5.32 12 6 C13.84971696 7.05021103 13.84971696 7.05021103 16 8 C19.88888889 9.77777778 19.88888889 9.77777778 21 12 C16.92408457 10.7677465 13.6285039 9.19619973 10 7 C9.29875 6.855625 8.5975 6.71125 7.875 6.5625 C5.25040453 5.77512136 4.53692005 4.20514616 3 2 C2.01 1.34 1.02 0.68 0 0 Z " fill="#422079" transform="translate(171,528)"/>
<path d="M0 0 C0.33 1.32 0.66 2.64 1 4 C0.34 4 -0.32 4 -1 4 C-1 5.32 -1 6.64 -1 8 C-1.66 8 -2.32 8 -3 8 C-3 9.32 -3 10.64 -3 12 C-3.99 12 -4.98 12 -6 12 C-6.66 14.31 -7.32 16.62 -8 19 C-8.66 18.67 -9.32 18.34 -10 18 C-7.81657957 11.06442923 -4.34044249 5.80311216 0 0 Z " fill="#572AA0" transform="translate(147,497)"/>
<path d="M0 0 C0.33 0 0.66 0 1 0 C1.061875 1.0725 1.12375 2.145 1.1875 3.25 C2.16138028 7.74483208 3.3176076 8.45739573 7 11 C8.8125 13.25 8.8125 13.25 10 15 C9.67 15.66 9.34 16.32 9 17 C7.83463251 15.83463251 6.67042716 14.66808249 5.51171875 13.49609375 C4.47217831 12.46729791 3.41068338 11.46036815 2.33203125 10.47265625 C0.81480976 9.0563426 -0.5989762 7.5313516 -2 6 C-2 4.68 -2 3.36 -2 2 C-1.34 2 -0.68 2 0 2 C0 1.34 0 0.68 0 0 Z " fill="#4B248B" transform="translate(158,542)"/>
<path d="M0 0 C3.61769026 0.85843498 6.45578494 2.06208667 9.6875 3.875 C9.6875 4.535 9.6875 5.195 9.6875 5.875 C10.3475 5.875 11.0075 5.875 11.6875 5.875 C11.3575 6.535 11.0275 7.195 10.6875 7.875 C7.00729695 7.24048223 7.00729695 7.24048223 5.375 5.375 C2.19683545 2.54996485 -2.22782121 2.875 -6.3125 2.875 C-4.34979651 -0.01132866 -3.56899708 -0.13467913 0 0 Z " fill="#33185E" transform="translate(274.3125,482.125)"/>
<path d="M0 0 C2.09570426 5.69398894 3.45018084 10.95198929 4 17 C3.34 17 2.68 17 2 17 C2 14.69 2 12.38 2 10 C1.34 10 0.68 10 0 10 C-0.66 7.69 -1.32 5.38 -2 3 C-3.65 3.33 -5.3 3.66 -7 4 C-7 3.34 -7 2.68 -7 2 C-4 0 -4 0 0 0 Z " fill="#3B1C6D" transform="translate(252,428)"/>
<path d="M0 0 C0.99 0 1.98 0 3 0 C3 0.66 3 1.32 3 2 C3.8353125 2.37125 3.8353125 2.37125 4.6875 2.75 C7.3993235 4.21585054 9.6152634 6.05455699 12 8 C12.66 8.33 13.32 8.66 14 9 C14.625 11.0625 14.625 11.0625 15 13 C11.16488047 11.43754389 8.89634216 8.89634216 6 6 C3.83379456 4.70480005 3.83379456 4.70480005 2 4 C2 3.34 2 2.68 2 2 C1.34 2 0.68 2 0 2 C0 1.34 0 0.68 0 0 Z " fill="#44207C" transform="translate(185,523)"/>
<path d="M0 0 C1.09658936 3.28976808 0.79953138 4.71303767 0 8 C-3.57467872 8.19859326 -6.04977304 8.13637125 -9 6 C-10.25 3.375 -10.25 3.375 -11 1 C-9.88625 1.7115625 -9.88625 1.7115625 -8.75 2.4375 C-6.38949985 3.77869327 -4.63351523 4.512312 -2 5 C-1.34 3.35 -0.68 1.7 0 0 Z " fill="#492385" transform="translate(209,438)"/>
<path d="M0 0 C3.37705625 0.53725895 6.696686 1.11064623 10 2 C10 2.99 10 3.98 10 5 C10.86625 5.185625 10.86625 5.185625 11.75 5.375 C14.02335767 6.00648824 15.9253529 6.88858191 18 8 C16 9 16 9 13.8359375 8.44140625 C13.02382812 8.15136719 12.21171875 7.86132812 11.375 7.5625 C10.55773437 7.27503906 9.74046875 6.98757813 8.8984375 6.69140625 C8.27195313 6.46324219 7.64546875 6.23507812 7 6 C7 5.01 7 4.02 7 3 C5.824375 2.814375 5.824375 2.814375 4.625 2.625 C2 2 2 2 0 0 Z " fill="#5F2EAE" transform="translate(189,648)"/>
<path d="M0 0 C-0.598125 0.268125 -1.19625 0.53625 -1.8125 0.8125 C-4.04327908 1.8893979 -4.04327908 1.8893979 -5.625 3.625 C-6.07875 4.07875 -6.5325 4.5325 -7 5 C-7.66 5 -8.32 5 -9 5 C-9.66 6.32 -10.32 7.64 -11 9 C-11.66 7.68 -12.32 6.36 -13 5 C-11.68 4.34 -10.36 3.68 -9 3 C-9 2.34 -9 1.68 -9 1 C-6.04335481 -0.4783226 -3.25770263 -0.06032783 0 0 Z " fill="#110820" transform="translate(275,481)"/>
<path d="M0 0 C0.33 0.66 0.66 1.32 1 2 C-0.26538369 2.84158536 -1.53753779 3.67299748 -2.8125 4.5 C-3.87404297 5.19609375 -3.87404297 5.19609375 -4.95703125 5.90625 C-7 7 -7 7 -10 7 C-10 7.66 -10 8.32 -10 9 C-12.64 9 -15.28 9 -18 9 C-17.01 8.67 -16.02 8.34 -15 8 C-15 7.34 -15 6.68 -15 6 C-14.01 5.938125 -13.02 5.87625 -12 5.8125 C-7.28172009 5.17567694 -3.8254486 2.69271836 0 0 Z " fill="#492386" transform="translate(265,482)"/>
<path d="M0 0 C1.32 0 2.64 0 4 0 C4 3.96 4 7.92 4 12 C2.5459375 12.680625 2.5459375 12.680625 1.0625 13.375 C-2.07079582 14.65786221 -2.07079582 14.65786221 -3 17 C-3.66 17 -4.32 17 -5 17 C-4.375 14.625 -4.375 14.625 -3 12 C0.125 10.6875 0.125 10.6875 3 10 C3 7.03 3 4.06 3 1 C2.01 0.67 1.02 0.34 0 0 Z " fill="#22103F" transform="translate(283,427)"/>
<path d="M0 0 C0.66 0 1.32 0 2 0 C2 0.66 2 1.32 2 2 C2.66 2 3.32 2 4 2 C4 2.66 4 3.32 4 4 C7.63 4.66 11.26 5.32 15 6 C14.67 6.99 14.34 7.98 14 9 C9.64477147 8.49357808 6.55760365 7.61588503 3 5 C3 4.34 3 3.68 3 3 C2.01 3 1.02 3 0 3 C0 2.01 0 1.02 0 0 Z " fill="#3C1D6F" transform="translate(253,591)"/>
<path d="M0 0 C0 0.99 0 1.98 0 3 C-1.98 3.99 -1.98 3.99 -4 5 C-4 6.98 -4 8.96 -4 11 C-3.01 11 -2.02 11 -1 11 C-0.34 13.31 0.32 15.62 1 18 C-4.94859813 12.36448598 -4.94859813 12.36448598 -6 9 C-5.9375 6.5 -5.9375 6.5 -5 4 C-2.4375 1.6875 -2.4375 1.6875 0 0 Z " fill="#3E1D72" transform="translate(272,555)"/>
<path d="M0 0 C0.33 0.66 0.66 1.32 1 2 C1.99 2.33 2.98 2.66 4 3 C4 3.66 4 4.32 4 5 C4.66 5 5.32 5 6 5 C6.25 11.625 6.25 11.625 4 15 C3.34 14.67 2.68 14.34 2 14 C2.33 10.7 2.66 7.4 3 4 C2.01 4 1.02 4 0 4 C0 2.68 0 1.36 0 0 Z " fill="#351961" transform="translate(128,545)"/>
<path d="M0 0 C0 2.77996107 -0.21297929 5.42492567 -0.5 8.1875 C-0.5928125 9.08855469 -0.685625 9.98960937 -0.78125 10.91796875 C-0.88953125 11.94857422 -0.88953125 11.94857422 -1 13 C-0.34 13 0.32 13 1 13 C0.67 13.99 0.34 14.98 0 16 C0 15.34 0 14.68 0 14 C-0.66 14 -1.32 14 -2 14 C-3.85584844 10.86825576 -4.53159412 8.63255984 -4 5 C-2 2.1875 -2 2.1875 0 0 Z " fill="#281349" transform="translate(308,545)"/>
<path d="M0 0 C0 1.32 0 2.64 0 4 C-0.66 4 -1.32 4 -2 4 C-2 4.99 -2 5.98 -2 7 C-2.99 7.33 -3.98 7.66 -5 8 C-5 6.68 -5 5.36 -5 4 C-6.65 4 -8.3 4 -10 4 C-9 2 -9 2 -6.6875 0.875 C-4 0 -4 0 0 0 Z " fill="#21103D" transform="translate(259,513)"/>
<path d="M0 0 C0.66 0 1.32 0 2 0 C2 3 2 3 0.3125 5 C-4.5357017 9.19303931 -7.49356327 10.38273157 -14 10 C-13.43667969 9.731875 -12.87335938 9.46375 -12.29296875 9.1875 C-9.85576885 7.92530448 -7.60168045 6.51350774 -5.3125 5 C-4.13107422 4.2265625 -4.13107422 4.2265625 -2.92578125 3.4375 C-0.88046834 2.13530991 -0.88046834 2.13530991 0 0 Z " fill="#6430B8" transform="translate(266,486)"/>
<path d="M0 0 C3.31117074 2.20744716 4.42569236 3.37909244 6 7 C6 10.50541598 5.58388484 13.83223032 4 17 C3.01 16.67 2.02 16.34 1 16 C1.66 15.01 2.32 14.02 3 13 C3.51324542 8.27814212 2.59921386 5.89882079 0 2 C0 1.34 0 0.68 0 0 Z " fill="#3E1E72" transform="translate(308,528)"/>
<path d="M0 0 C1.32 0 2.64 0 4 0 C4 0.66 4 1.32 4 2 C2.68 2 1.36 2 0 2 C0 2.66 0 3.32 0 4 C-3.82942948 6.90108294 -7.27536912 7.53680089 -12 8 C-10.59961539 5.19923078 -8.79971757 4.76975197 -6 3.4375 C-2.77672865 2.04743483 -2.77672865 2.04743483 0 0 Z " fill="#281349" transform="translate(266,527)"/>
<path d="M0 0 C2.875 -0.1875 2.875 -0.1875 6 0 C6.66 0.99 7.32 1.98 8 3 C7.34 3 6.68 3 6 3 C6.33 4.65 6.66 6.3 7 8 C5.8274869 7.04882866 4.66212985 6.08882991 3.5 5.125 C2.8503125 4.59132813 2.200625 4.05765625 1.53125 3.5078125 C1.0259375 3.01023437 0.520625 2.51265625 0 2 C0 1.34 0 0.68 0 0 Z " fill="#1F0F39" transform="translate(177,513)"/>
<path d="M0 0 C0.845625 0.144375 1.69125 0.28875 2.5625 0.4375 C6.03593149 1.0058797 9.51445662 1.51202393 13 2 C13 2.33 13 2.66 13 3 C11.02 3 9.04 3 7 3 C7 3.66 7 4.32 7 5 C4.03 4.67 1.06 4.34 -2 4 C-1.01 3.67 -0.02 3.34 1 3 C0.67 2.01 0.34 1.02 0 0 Z " fill="#1A0C31" transform="translate(187,491)"/>
<path d="M0 0 C2.97 0.495 2.97 0.495 6 1 C6 3.64 6 6.28 6 9 C2.07699505 6.64619703 1.16142685 4.35535069 0 0 Z " fill="#7438D5" transform="translate(247,590)"/>
<path d="M0 0 C0.99 0 1.98 0 3 0 C3 0.66 3 1.32 3 2 C3.99 2.33 4.98 2.66 6 3 C4.7625 3.061875 3.525 3.12375 2.25 3.1875 C-1.23587675 3.59868617 -1.77443589 3.74937321 -4.25 6.5 C-4.8275 7.325 -5.405 8.15 -6 9 C-8.25 9.8125 -8.25 9.8125 -10 10 C-10 9.34 -10 8.68 -10 8 C-9.34 8 -8.68 8 -8 8 C-8 7.34 -8 6.68 -8 6 C-3.64705882 2 -3.64705882 2 0 2 C0 1.34 0 0.68 0 0 Z " fill="#2E1656" transform="translate(197,587)"/>
<path d="M0 0 C0.66 0 1.32 0 2 0 C2 2.64 2 5.28 2 8 C-3.75 6.375 -3.75 6.375 -6 3 C-4.35 3 -2.7 3 -1 3 C-0.67 2.01 -0.34 1.02 0 0 Z " fill="#6330B6" transform="translate(201,538)"/>
<path d="M0 0 C2.0625 0.4375 2.0625 0.4375 4 1 C3.01 1 2.02 1 1 1 C0.67 4.3 0.34 7.6 0 11 C-1.32 11 -2.64 11 -4 11 C-2.55172414 2.55172414 -2.55172414 2.55172414 0 0 Z " fill="#562A9E" transform="translate(176,540)"/>
<path d="M0 0 C0.99 0.33 1.98 0.66 3 1 C3 2.32 3 3.64 3 5 C3.66 5 4.32 5 5 5 C5.19477739 6.62414378 5.38059458 8.24936423 5.5625 9.875 C5.66691406 10.77992188 5.77132813 11.68484375 5.87890625 12.6171875 C6 15 6 15 5 17 C4.34 16.67 3.68 16.34 3 16 C3.2475 15.34 3.495 14.68 3.75 14 C4.07245885 10.13049379 2.80351462 8.16612377 0.91015625 4.8671875 C0 3 0 3 0 0 Z " fill="#341960" transform="translate(313,568)"/>
<path d="M0 0 C0.33 1.32 0.66 2.64 1 4 C0.34 4 -0.32 4 -1 4 C-1 5.65 -1 7.3 -1 9 C-1.99 9 -2.98 9 -4 9 C-4 9.66 -4 10.32 -4 11 C-4.66 10.67 -5.32 10.34 -6 10 C-5.67 8.68 -5.34 7.36 -5 6 C-4.34 6 -3.68 6 -3 6 C-3 4.68 -3 3.36 -3 2 C-2.01 2 -1.02 2 0 2 C0 1.34 0 0.68 0 0 Z " fill="#351A62" transform="translate(165,531)"/>
<path d="M0 0 C0.33 1.32 0.66 2.64 1 4 C0.34 4 -0.32 4 -1 4 C-1 4.66 -1 5.32 -1 6 C-1.99 6 -2.98 6 -4 6 C-4.66 7.32 -5.32 8.64 -6 10 C-6.66 9.67 -7.32 9.34 -8 9 C-6.4169423 4.7257442 -3.49431596 2.73468206 0 0 Z " fill="#33185D" transform="translate(301,601)"/>
<path d="M0 0 C0.66 0 1.32 0 2 0 C3.61316843 2.37230651 4.96044483 4.35868125 6 7 C5.28307503 10.72800985 4.10488967 12.84266549 2 16 C1.34 15.67 0.68 15.34 0 15 C0.66 14.01 1.32 13.02 2 12 C2.33775739 7.4402752 1.99840383 4.1217079 0 0 Z " fill="#411F78" transform="translate(273,573)"/>
<path d="M0 0 C1.32 0.33 2.64 0.66 4 1 C-1.24493326 4.34782974 -5.87903309 5.94513949 -12 7 C-11.34 6.01 -10.68 5.02 -10 4 C-7.375 3.8125 -7.375 3.8125 -5 4 C-5 3.34 -5 2.68 -5 2 C-3.35 2 -1.7 2 0 2 C0 1.34 0 0.68 0 0 Z " fill="#2E1654" transform="translate(259,490)"/>
<path d="M0 0 C0.99920411 3.13225686 0.96338325 5.19332049 0.1875 8.375 C-0.00199219 9.15488281 -0.19148438 9.93476563 -0.38671875 10.73828125 C-1.14498196 13.5346787 -2.02116082 16.2732337 -3 19 C-3.33 19 -3.66 19 -4 19 C-4.38113277 12.01256592 -3.13941257 6.27882515 0 0 Z " fill="#482384" transform="translate(276,447)"/>
<path d="M0 0 C-0.93972656 0.30744141 -0.93972656 0.30744141 -1.8984375 0.62109375 C-2.71570313 0.89050781 -3.53296875 1.15992188 -4.375 1.4375 C-5.18710938 1.70433594 -5.99921875 1.97117187 -6.8359375 2.24609375 C-9.01031799 2.95179729 -9.01031799 2.95179729 -11 4 C-12.54023996 4.06950541 -14.08334988 4.08452357 -15.625 4.0625 C-16.85089844 4.04896484 -16.85089844 4.04896484 -18.1015625 4.03515625 C-19.04128906 4.01775391 -19.04128906 4.01775391 -20 4 C-20 3.67 -20 3.34 -20 3 C-18.865625 2.855625 -17.73125 2.71125 -16.5625 2.5625 C-13.19222799 2.38828522 -13.19222799 2.38828522 -12 1 C-10.36530922 0.57907433 -8.71653706 0.21197742 -7.0625 -0.125 C-6.16660156 -0.31320312 -5.27070313 -0.50140625 -4.34765625 -0.6953125 C-2 -1 -2 -1 0 0 Z " fill="#482283" transform="translate(234,581)"/>
<path d="M0 0 C0.33 0.99 0.66 1.98 1 3 C0.319375 3.8353125 0.319375 3.8353125 -0.375 4.6875 C-2.7289971 8.03741895 -2.66216596 10.94599148 -3 15 C-3.66 14.67 -4.32 14.34 -5 14 C-4.09068323 5.05838509 -4.09068323 5.05838509 -2 1 C-1.34 0.67 -0.68 0.34 0 0 Z " fill="#54289A" transform="translate(124,569)"/>
<path d="M0 0 C6.625 -0.125 6.625 -0.125 10 1 C10 1.66 10 2.32 10 3 C6.7 3 3.4 3 0 3 C0 2.01 0 1.02 0 0 Z " fill="#0B0514" transform="translate(194,494)"/>
<path d="M0 0 C6.55963303 1.76605505 6.55963303 1.76605505 9 3.0625 C11.90283112 4.42320209 14.83801021 4.63515502 18 5 C18 5.33 18 5.66 18 6 C12.78020872 6.1799928 8.92737019 5.97094808 4 4 C4 3.34 4 2.68 4 2 C2.68 1.67 1.36 1.34 0 1 C0 0.67 0 0.34 0 0 Z " fill="#29144C" transform="translate(205,657)"/>
<path d="M0 0 C2.475 0.495 2.475 0.495 5 1 C4.67 2.65 4.34 4.3 4 6 C3.34 6 2.68 6 2 6 C2 6.66 2 7.32 2 8 C1.34 7.67 0.68 7.34 0 7 C0 4.69 0 2.38 0 0 Z " fill="#301759" transform="translate(168,559)"/>
<path d="M0 0 C0 3.86695678 -1.41909971 6.5088452 -3 10 C-3.66 10 -4.32 10 -5 10 C-5.66 11.32 -6.32 12.64 -7 14 C-7 11.32115341 -6.88590541 9.49664253 -6 7 C-5.01 6.34 -4.02 5.68 -3 5 C-1.94895617 3.36504293 -0.94011682 1.70116376 0 0 Z " fill="#411F77" transform="translate(135,517)"/>
<path d="M0 0 C1.93922422 0.45098238 3.87633594 0.91105559 5.8125 1.375 C6.89144531 1.63023437 7.97039062 1.88546875 9.08203125 2.1484375 C12 3 12 3 15 5 C9.38410702 5.29047722 5.90174068 5.10842092 1 2 C0.67 1.34 0.34 0.68 0 0 Z " fill="#4C258C" transform="translate(182,493)"/>
<path d="M0 0 C1.0209375 0.2165625 1.0209375 0.2165625 2.0625 0.4375 C4.19531774 0.84591191 6.34520015 1.16815002 8.5 1.4375 C11.64005391 1.94215152 14.12087098 2.69130499 17 4 C17 4.33 17 4.66 17 5 C10.54487966 5.56131481 5.84560277 3.63463787 0 1 C0 0.67 0 0.34 0 0 Z " fill="#190C2E" transform="translate(204,579)"/>
<path d="M0 0 C3.3 0.33 6.6 0.66 10 1 C10 1.99 10 2.98 10 4 C7.03 3.67 4.06 3.34 1 3 C0.67 2.01 0.34 1.02 0 0 Z " fill="#6F35CB" transform="translate(221,614)"/>
<path d="M0 0 C2.97 0.495 2.97 0.495 6 1 C6 1.66 6 2.32 6 3 C6.66 3 7.32 3 8 3 C8 3.66 8 4.32 8 5 C9.32 5.66 10.64 6.32 12 7 C9 7 9 7 6 6 C6 5.34 6 4.68 6 4 C5.195625 3.71125 4.39125 3.4225 3.5625 3.125 C1 2 1 2 0 0 Z " fill="#381B67" transform="translate(187,545)"/>
<path d="M0 0 C4.77371881 0.76995465 9.55679303 2.08134244 14 4 C14.33 4.66 14.66 5.32 15 6 C9.22621075 5.5188509 5.04140164 3.81532819 0 1 C0 0.67 0 0.34 0 0 Z " fill="#4F2692" transform="translate(191,517)"/>
<path d="M0 0 C0.99 0 1.98 0 3 0 C2.55037804 1.96035175 2.09001752 3.91824309 1.625 5.875 C1.36976563 6.96554687 1.11453125 8.05609375 0.8515625 9.1796875 C0 12 0 12 -2 14 C-2 12.35 -2 10.7 -2 9 C-1.34 9 -0.68 9 0 9 C0 6.03 0 3.06 0 0 Z " fill="#7338D4" transform="translate(269,465)"/>
<path d="M0 0 C1.32 0.66 2.64 1.32 4 2 C3.67 2.66 3.34 3.32 3 4 C2.01 3.67 1.02 3.34 0 3 C-1.32 4.32 -2.64 5.64 -4 7 C-4.66 6.67 -5.32 6.34 -6 6 C-4 4 -2 2 0 0 Z " fill="#6530B9" transform="translate(248,430)"/>
<path d="M0 0 C-1.95421035 0.86355778 -3.91351347 1.71559934 -5.875 2.5625 C-6.96554688 3.03816406 -8.05609375 3.51382813 -9.1796875 4.00390625 C-10.11039063 4.33261719 -11.04109375 4.66132812 -12 5 C-12.66 4.67 -13.32 4.34 -14 4 C-13.34 3.34 -12.68 2.68 -12 2 C-11.01 2 -10.02 2 -9 2 C-9 1.34 -9 0.68 -9 0 C-5.5657338 -0.85856655 -3.38317487 -0.97591583 0 0 Z " fill="#4F2691" transform="translate(241,588)"/>
<path d="M0 0 C0.33 0 0.66 0 1 0 C1.39141851 3.42491198 1.13357065 4.79010327 -0.75 7.75 C-2.96883223 9.96883223 -3.94602429 10.67278832 -7 11 C-5.19587357 7.73539027 -4.16605307 6.11070205 -1 4 C-0.27617533 1.94074861 -0.27617533 1.94074861 0 0 Z " fill="#5B2CA8" transform="translate(280,544)"/>
<path d="M0 0 C1 2 1 2 0.0625 5.125 C-0.288125 6.07375 -0.63875 7.0225 -1 8 C-2.65 8 -4.3 8 -6 8 C-6.33 6.68 -6.66 5.36 -7 4 C-4.525 4.495 -4.525 4.495 -2 5 C-1.34 3.35 -0.68 1.7 0 0 Z " fill="#6F35CB" transform="translate(182,443)"/>
<path d="M0 0 C2.475 0.99 2.475 0.99 5 2 C5 2.66 5 3.32 5 4 C5.66 4 6.32 4 7 4 C6.67 5.32 6.34 6.64 6 8 C4.9970458 6.85675161 3.99770973 5.71032809 3 4.5625 C2.443125 3.92441406 1.88625 3.28632812 1.3125 2.62890625 C0 1 0 1 0 0 Z " fill="#5C2CA8" transform="translate(143,609)"/>
<path d="M0 0 C4 4.75 4 4.75 4 7 C4.66 7 5.32 7 6 7 C6.33 8.32 6.66 9.64 7 11 C6.34 11 5.68 11 5 11 C5 10.34 5 9.68 5 9 C4.01 8.67 3.02 8.34 2 8 C0.04457812 5.01540871 0 3.73585209 0 0 Z " fill="#462281" transform="translate(180,603)"/>
<path d="M0 0 C1.9375 0.5625 1.9375 0.5625 4 2 C4.75 5.625 4.75 5.625 5 9 C2.5 6.75 2.5 6.75 0 4 C0 2.68 0 1.36 0 0 Z " fill="#361A64" transform="translate(292,500)"/>
<path d="M0 0 C-0.99 0.33 -1.98 0.66 -3 1 C-4.71567661 4.50294871 -4.71567661 4.50294871 -6 8 C-6.33 8 -6.66 8 -7 8 C-7 5.36 -7 2.72 -7 0 C-3.86650268 -1.04449911 -3.01031744 -0.93423645 0 0 Z " fill="#5F2EAF" transform="translate(283,439)"/>
<path d="M0 0 C0.66 0 1.32 0 2 0 C3.32 2.31 4.64 4.62 6 7 C5.01 7.495 5.01 7.495 4 8 C4 7.34 4 6.68 4 6 C3.01 6 2.02 6 1 6 C0.67 4.02 0.34 2.04 0 0 Z " fill="#562A9E" transform="translate(163,588)"/>
<path d="M0 0 C0 0.99 0 1.98 0 3 C-1.65 2.67 -3.3 2.34 -5 2 C-5 1.34 -5 0.68 -5 0 C-6.32 -0.33 -7.64 -0.66 -9 -1 C-5.22102349 -2.0497157 -3.35080929 -2.10976881 0 0 Z " fill="#7036CE" transform="translate(246,587)"/>
<path d="M0 0 C3.72433382 1.2125738 7.37802806 2.50859979 11 4 C10.67 4.66 10.34 5.32 10 6 C8.5164999 5.57742724 7.03823576 5.13643678 5.5625 4.6875 C4.73878906 4.44386719 3.91507813 4.20023438 3.06640625 3.94921875 C2.04353516 3.47935547 2.04353516 3.47935547 1 3 C0.67 2.01 0.34 1.02 0 0 Z " fill="#1B0D32" transform="translate(183,556)"/>
<path d="M0 0 C1.485 0.99 1.485 0.99 3 2 C3 2.66 3 3.32 3 4 C3.99 4.33 4.98 4.66 6 5 C6.33 6.65 6.66 8.3 7 10 C2.78577758 7.11658466 1.23924145 4.95696581 0 0 Z " fill="#29134C" transform="translate(297,509)"/>
<path d="M0 0 C0.33 0.99 0.66 1.98 1 3 C2.65 2.67 4.3 2.34 6 2 C5.67 3.32 5.34 4.64 5 6 C3.35 6 1.7 6 0 6 C0 4.02 0 2.04 0 0 Z " fill="#6531BA" transform="translate(256,445)"/>
<path d="M0 0 C-3.03525486 2.02350324 -4.19426202 2.32124018 -7.6875 2.625 C-8.49574219 2.69976563 -9.30398437 2.77453125 -10.13671875 2.8515625 C-10.75160156 2.90054688 -11.36648437 2.94953125 -12 3 C-11 1 -11 1 -7.6875 -0.1875 C-4.42437937 -0.90649268 -3.00717118 -1.20286847 0 0 Z " fill="#56299E" transform="translate(237,634)"/>
<path d="M0 0 C1.60725635 3.21451269 1.05748185 6.43612536 1 10 C0.01 9.34 -0.98 8.68 -2 8 C-2.3125 5 -2.3125 5 -2 2 C-1.34 1.34 -0.68 0.68 0 0 Z " fill="#2B144F" transform="translate(162,576)"/>
<path d="M0 0 C1.98 0 3.96 0 6 0 C6 1.32 6 2.64 6 4 C5.34 4 4.68 4 4 4 C4 4.66 4 5.32 4 6 C3.01 5.67 2.02 5.34 1 5 C1.66 5 2.32 5 3 5 C3 3.68 3 2.36 3 1 C2.01 0.67 1.02 0.34 0 0 Z " fill="#572A9F" transform="translate(256,512)"/>
<path d="M0 0 C0.66 0 1.32 0 2 0 C1.38461538 7.50769231 1.38461538 7.50769231 -0.5625 10 C-1.036875 10.33 -1.51125 10.66 -2 11 C-2 9.35 -2 7.7 -2 6 C-1.34 6 -0.68 6 0 6 C0 4.02 0 2.04 0 0 Z " fill="#241142" transform="translate(182,435)"/>
<path d="M0 0 C0.66 0.33 1.32 0.66 2 1 C1.67 2.32 1.34 3.64 1 5 C0.01 5 -0.98 5 -2 5 C-2.33 6.32 -2.66 7.64 -3 9 C-3.33 8.34 -3.66 7.68 -4 7 C-3.0625 4.375 -3.0625 4.375 -2 2 C-1.34 2 -0.68 2 0 2 C0 1.34 0 0.68 0 0 Z " fill="#28134A" transform="translate(151,488)"/>
<path d="M0 0 C0.33 1.32 0.66 2.64 1 4 C0.34 4 -0.32 4 -1 4 C-1 5.65 -1 7.3 -1 9 C-1.99 9 -2.98 9 -4 9 C-2.94124926 5.59687262 -1.99097846 2.98646769 0 0 Z " fill="#572AA1" transform="translate(129,560)"/>
<path d="M0 0 C0.33 0 0.66 0 1 0 C1.08131463 1.43655854 1.13933559 2.8744483 1.1875 4.3125 C1.23970703 5.51326172 1.23970703 5.51326172 1.29296875 6.73828125 C0.93801608 9.47851584 0.10633718 10.29171079 -2 12 C-1.855625 11.319375 -1.71125 10.63875 -1.5625 9.9375 C-0.93054091 6.63726918 -0.45686059 3.32855574 0 0 Z " fill="#120922" transform="translate(275,453)"/>
<path d="M0 0 C0.33 0.66 0.66 1.32 1 2 C0.34 2 -0.32 2 -1 2 C-1 2.66 -1 3.32 -1 4 C-2.65 3.67 -4.3 3.34 -6 3 C-6 2.34 -6 1.68 -6 1 C-4.02 0.67 -2.04 0.34 0 0 Z " fill="#3C1D6F" transform="translate(236,442)"/>
<path d="M0 0 C3.125 -0.1875 3.125 -0.1875 6 0 C6 0.66 6 1.32 6 2 C3.36 2.33 0.72 2.66 -2 3 C-1.34 2.01 -0.68 1.02 0 0 Z " fill="#54289A" transform="translate(277,426)"/>
</svg>
