<svg xmlns="http://www.w3.org/2000/svg" xmlns:xlink="http://www.w3.org/1999/xlink" version="1.1" width="1080" height="1080" viewBox="0 0 1080 1080" xml:space="preserve">
<desc>Created with Fabric.js 5.2.4</desc>
<defs>
</defs>
<rect x="0" y="0" width="100%" height="100%" fill="transparent"></rect>
<g transform="matrix(1 0 0 1 540 540)" id="39068cf6-ab1a-4bfc-9ae8-6deb479c6e2f"  >
<rect style="stroke: none; stroke-width: 1; stroke-dasharray: none; stroke-linecap: butt; stroke-dashoffset: 0; stroke-linejoin: miter; stroke-miterlimit: 4; fill: rgb(255,255,255); fill-rule: nonzero; opacity: 1; visibility: hidden;" vector-effect="non-scaling-stroke"  x="-540" y="-540" rx="0" ry="0" width="1080" height="1080" />
</g>
<g transform="matrix(1 0 0 1 540 540)" id="4ebb2db1-e525-4422-8d2a-994de30540e2"  >
</g>
<g transform="matrix(NaN NaN NaN NaN 0 0)"  >
<g style=""   >
</g>
</g>
<g transform="matrix(NaN NaN NaN NaN 0 0)"  >
<g style=""   >
</g>
</g>
<g transform="matrix(NaN NaN NaN NaN 0 0)"  >
<g style=""   >
</g>
</g>
<g transform="matrix(8.6 0 0 9.09 1564.01 521.5)"  >
<g style="" vector-effect="non-scaling-stroke"   >
		<g transform="matrix(1 0 0 1 -120 0)"  >
<path style="stroke: none; stroke-width: 1; stroke-dasharray: none; stroke-linecap: butt; stroke-dashoffset: 0; stroke-linejoin: miter; stroke-miterlimit: 4; fill: rgb(127,70,240); fill-rule: nonzero; opacity: 1;" vector-effect="non-scaling-stroke"  transform=" translate(-45, -54.78)" d="M 17.911 10.141 C 18.048000000000002 10.141 18.183 10.131 18.315 10.114 L 22.289 26.268 L 22.419 26.792 L 22.613 27.296000000000003 C 22.613 27.296000000000003 25.44 34.564 45 34.564 C 64.56 34.564 67.385 27.296 67.385 27.296 C 67.50254000239873 26.98024500494738 67.60433195316477 26.65884943580741 67.69000000000001 26.333000000000002 L 71.69600000000001 10.067 C 72.57906011526646 10.268518906761718 73.50584073569703 10.05747671916233 74.21458125980223 9.493480348209552 C 74.92332178390743 8.929483977256774 75.33708230626839 8.073760100361882 75.33900000000001 7.168 C 75.3367978828869 5.525703862825734 74.0062953043439 4.19475405652523 72.36400000000002 4.192 C 70.72053316379854 4.193101518084783 69.38820562710781 5.524534274697141 69.38600000000002 7.167999999999999 C 69.38592901203879 7.794026120259948 69.58367585845676 8.404066391598938 69.95100000000002 8.911 L 63.01200000000002 14.367999999999999 C 62.92404710898658 14.457207629740688 62.79512277223642 14.49260492017865 62.67394891617105 14.46081484550392 C 62.55277506010569 14.42902477082919 62.457832090130594 14.33489568271544 62.42500000000002 14.213999999999999 L 59.18500000000002 5.437999999999999 C 59.088000000000015 5.176999999999999 58.84800000000001 5.128999999999999 58.649000000000015 5.334999999999999 L 51.359000000000016 12.878 C 51.16000000000002 13.082 50.884000000000015 13.05 50.74500000000002 12.805 L 46.57800000000002 5.494 C 47.445697821753605 4.950297313703243 47.972124197654885 3.997968191469763 47.97100000000002 2.973999999999999 C 47.971 1.331 46.64 0 44.998 0 C 43.355999999999995 0 42.022 1.332 42.022 2.975 C 42.022 4.037 42.577999999999996 4.9670000000000005 43.414 5.495 L 39.249 12.806000000000001 C 39.11 13.051 38.834 13.083 38.636 12.879000000000001 L 31.346000000000004 5.336000000000001 C 31.148000000000003 5.131000000000001 30.908000000000005 5.179000000000001 30.810000000000002 5.439000000000001 L 27.569000000000003 14.215 C 27.473000000000003 14.477 27.21 14.547 26.983000000000004 14.369 L 20.216000000000005 9.048 C 20.64908341761808 8.518051547619077 20.88514214229967 7.85440142044538 20.884000000000004 7.17 C 20.881797882886897 5.52770386282573 19.55129530434388 4.196754056525225 17.909 4.194000000000001 C 16.26631415801763 4.196203471573128 14.935203471573129 5.527314158017625 14.933000000000003 7.169999999999998 C 14.937958698728718 8.811902541358256 16.27009006074272 10.140456511329255 17.912000000000003 10.141 z M 89.913 72.612 L 82.979 61.096999999999994 C 82.834 60.85699999999999 82.852 60.471999999999994 83.022 60.24699999999999 L 87.38600000000001 54.33099999999999 C 87.55600000000001 54.10299999999999 87.57400000000001 53.72099999999999 87.42900000000002 53.48099999999999 L 74.735 32.318 C 74.5493728090199 32.037762748648134 74.29307646056239 31.811476874370715 73.992 31.662 L 69.223 29.515 C 68.958 29.394000000000002 68.591 29.472 68.407 29.688 C 68.407 29.688 66.771 31.583 64.74 32.751999999999995 C 60.31699999999999 35.29899999999999 53.67399999999999 36.653999999999996 44.998999999999995 36.653999999999996 C 36.342999999999996 36.653999999999996 29.682999999999993 35.269 25.204999999999995 32.663999999999994 C 23.358999999999995 31.589999999999993 21.616999999999994 29.674999999999994 21.616999999999994 29.674999999999994 C 21.398662679828576 29.459756307576335 21.07343461338622 29.394553579279922 20.788999999999994 29.508999999999993 L 16.006999999999994 31.662999999999993 C 15.706344507346216 31.813501046371602 15.449964403995198 32.03955662136927 15.262999999999995 32.318999999999996 L 2.572 53.482 C 2.4286251026207264 53.7514985949856 2.4447555674180688 54.07794847778896 2.614 54.332 L 6.979 60.248000000000005 C 7.148244432581931 60.50205152221105 7.164374897379274 60.82850140501441 7.021 61.098000000000006 L 0.089 72.613 C -0.05257764226575598 72.87702462911493 -0.020993888296196195 73.20036331037831 0.16900000000000007 73.432 L 22.326 98.297 C 22.514 98.511 22.888 98.59 23.155 98.479 L 27.855 96.497 C 28.122 96.384 28.341 96.519 28.341 96.797 L 28.341 101.426 C 28.361152807479392 101.73508206069005 28.542313039881606 102.01081021315127 28.818 102.152 L 44.523 109.467 C 44.829992866833756 109.58716735833605 45.17100713316625 109.58716735833605 45.478 109.467 L 61.183 102.152 C 61.45868696011839 102.01081021315127 61.639847192520605 101.73508206069005 61.66 101.426 L 61.66 96.797 C 61.66 96.518 61.879999999999995 96.384 62.147 96.497 L 66.846 98.479 C 67.13480344260941 98.58538702955491 67.4591017505532 98.51436140735782 67.677 98.297 L 89.83200000000001 73.432 C 90.02000000000001 73.22200000000001 90.05600000000001 72.851 89.91300000000001 72.611 z M 32.118 89.131 L 27.317 84.03 C 27.15422274458481 83.79424425605436 27.208257272269766 83.47180871380316 27.439 83.302 L 35.078 76.069 C 35.309000000000005 75.898 35.713 75.86 35.975 75.985 L 43.731 79.636 C 43.994 79.761 44.208 80.088 44.208 80.36699999999999 L 44.208 87.32799999999999 C 44.208 87.60699999999999 43.971 87.86699999999999 43.681 87.90999999999998 L 32.94199999999999 89.47399999999999 C 32.651999999999994 89.51599999999999 32.28099999999999 89.36399999999999 32.11599999999999 89.13199999999999 z M 54.411 95.136 C 54.411 95.413 54.188 95.723 53.914 95.821 L 45.497 98.844 C 45.223 98.94 44.775 98.94 44.5 98.844 L 36.082 95.821 C 35.809 95.723 35.585 95.413 35.585 95.136 L 35.585 91.36399999999999 C 35.585 91.082 35.822 90.82399999999998 36.112 90.782 L 39.732 90.253 C 40.43 91.75 42.161 93.745 44.999 93.745 C 47.837 93.745 49.567 91.751 50.265 90.253 L 53.886 90.782 C 54.173 90.823 54.410000000000004 91.082 54.410000000000004 91.36399999999999 L 54.410000000000004 95.136 z M 62.683 84.02799999999999 L 57.882 89.12899999999999 C 57.682161340095526 89.37401160661639 57.37253592647654 89.50214542463104 57.058 89.46999999999998 L 46.318 87.90599999999998 C 46.028999999999996 87.86299999999997 45.791 87.60299999999998 45.791 87.32399999999998 L 45.791 80.36299999999999 C 45.791 80.08399999999999 46.004999999999995 79.75799999999998 46.269999999999996 79.63699999999999 L 54.035999999999994 75.98599999999999 C 54.297 75.86299999999999 54.69899999999999 75.90499999999999 54.931999999999995 76.07199999999999 L 62.562999999999995 83.29799999999999 C 62.79299999999999 83.47299999999998 62.84799999999999 83.79999999999998 62.684 84.02799999999999 z M 72.512 57.96499999999999 L 66.489 64.54499999999999 C 66.29700000000001 64.75399999999999 66.27000000000001 65.11499999999998 66.431 65.347 L 71.428 72.606 C 71.58807520985202 72.86626151599472 71.59420242183771 73.19291850498178 71.444 73.45899999999999 L 66.224 81.64299999999999 C 66.15202745248294 81.75651659384056 66.03575668745722 81.83465593410759 65.90346327702905 81.85841552649771 C 65.77116986660087 81.88217511888782 65.63497516773892 81.84937799555463 65.528 81.76799999999999 L 55.82600000000001 74.62399999999998 C 55.595000000000006 74.45299999999997 55.406000000000006 74.08799999999998 55.409000000000006 73.81199999999998 L 55.48700000000001 64.84099999999998 C 55.48800000000001 64.56399999999998 55.70700000000001 64.23799999999999 55.96900000000001 64.11499999999998 L 65.74300000000001 59.55599999999998 C 66.00500000000001 59.43499999999998 66.10700000000001 59.13299999999998 65.97300000000001 58.887999999999984 L 63.84200000000001 55.05399999999998 C 63.7753415401265 54.936292864793636 63.66298879406491 54.851378409567516 63.531558303562655 54.819373001938004 C 63.4001278130604 54.78736759430849 63.26131324924847 54.811118828542355 63.14800000000001 54.884999999999984 L 52.83100000000001 61.26799999999999 C 52.571661435783064 61.44688231751402 52.40845249456296 61.73461636512779 52.38800000000001 62.048999999999985 L 52.38800000000001 72.31299999999999 C 52.38800000000001 72.58999999999999 52.155000000000015 72.87999999999998 51.875000000000014 72.954 L 45.51300000000001 74.64599999999999 C 45.231000000000016 74.72199999999998 44.77000000000001 74.72199999999998 44.488000000000014 74.64599999999999 L 38.12700000000002 72.954 C 37.84500000000002 72.87899999999999 37.61400000000002 72.589 37.61400000000002 72.31299999999999 L 37.61400000000002 62.05299999999999 C 37.61400000000002 61.77599999999999 37.41300000000002 61.42299999999999 37.16900000000002 61.27199999999999 L 26.852000000000018 54.88899999999999 C 26.738686750751558 54.81511882854237 26.59987218693963 54.7913675943085 26.468441696437377 54.82337300193801 C 26.337011205935124 54.85537840956752 26.224658459873535 54.94029286479364 26.15800000000002 55.057999999999986 L 24.02700000000002 58.89199999999999 C 23.89000000000002 59.136999999999986 23.994000000000018 59.43999999999999 24.25700000000002 59.55999999999999 L 34.030000000000015 64.11899999999999 C 34.29300000000001 64.24199999999999 34.51000000000001 64.56799999999998 34.512000000000015 64.84499999999998 L 34.59000000000002 73.81599999999999 C 34.570410409397915 74.1327738121626 34.41965249433129 74.42704166560996 34.17400000000002 74.62799999999999 L 24.47100000000002 81.77299999999998 C 24.24000000000002 81.94199999999998 23.92700000000002 81.88599999999998 23.77600000000002 81.64799999999998 L 18.55400000000002 73.46399999999998 C 18.403797578162305 73.19791850498177 18.409924790147993 72.87126151599472 18.570000000000018 72.61099999999999 L 23.56800000000002 65.35199999999999 C 23.725728512006096 65.10064782181865 23.702253261779962 64.77604177558831 23.51000000000002 64.54999999999998 L 17.48700000000002 57.969999999999985 C 17.29359028450528 57.74079095593827 17.262515313363544 57.415698950147764 17.40900000000002 57.15399999999998 L 22.41000000000002 49.13299999999998 C 22.559000000000022 48.893999999999984 22.88400000000002 48.81899999999998 23.13300000000002 48.966999999999985 L 37.48800000000002 57.44399999999999 C 37.73700000000002 57.58999999999999 37.94000000000002 57.481999999999985 37.94000000000002 57.20499999999999 L 37.94000000000002 54.76599999999999 C 37.94000000000002 54.48799999999999 37.76700000000002 54.10499999999999 37.55500000000002 53.91299999999999 L 26.41800000000002 43.88299999999999 C 26.2046498104808 43.68276449257759 26.16352772417916 43.35924277279636 26.32000000000002 43.11199999999999 L 26.524000000000022 42.81199999999999 C 26.68300000000002 42.57799999999999 27.033000000000023 42.47899999999999 27.30200000000002 42.587999999999994 L 44.514000000000024 49.669 C 44.830107076953155 49.778573879047116 45.17389292304689 49.778573879047116 45.49000000000002 49.669 L 62.700000000000024 42.586 C 62.97965856220639 42.478841161505024 63.29646813614 42.57029134779514 63.47600000000003 42.809999999999995 L 63.681000000000026 43.10999999999999 C 63.837472275820886 43.35724277279636 63.79635018951925 43.680764492577595 63.58300000000003 43.88099999999999 L 52.446000000000026 53.910999999999994 C 52.21779687776619 54.13877106659625 52.08084973919576 54.442189012571774 52.06100000000003 54.763999999999996 L 52.06100000000003 57.202999999999996 C 52.06100000000003 57.480999999999995 52.26500000000003 57.587999999999994 52.51300000000003 57.44199999999999 L 66.86800000000002 48.96499999999999 C 67.11700000000002 48.816999999999986 67.44300000000003 48.89199999999999 67.59000000000002 49.130999999999986 L 72.59100000000002 57.15199999999999 C 72.73674228152494 57.41365517012585 72.7052826207802 57.73820736641658 72.51200000000003 57.966999999999985 z" stroke-linecap="round" />
</g>
		<g transform="matrix(1 0 0 1 55 0.03)"  >
<path style="stroke: none; stroke-width: 1; stroke-dasharray: none; stroke-linecap: butt; stroke-dashoffset: 0; stroke-linejoin: miter; stroke-miterlimit: 4; fill: rgb(255,255,255); fill-rule: nonzero; opacity: 1;" vector-effect="non-scaling-stroke"  transform=" translate(-220, -54.8)" d="M 110 74.609 L 113.225 58.76499999999999 L 125.33399999999999 58.76499999999999 L 122.90099999999998 46.65599999999999 L 120.97699999999998 56.388999999999996 L 113.67799999999997 56.388999999999996 L 117.97799999999997 35 L 127.82399999999997 35 L 134.04799999999997 65.895 L 119.05299999999997 65.895 L 117.29899999999996 74.609 L 110 74.609 z M 128.56 74.609 L 127.259 68.27199999999999 L 134.558 68.27199999999999 L 135.803 74.609 L 128.56 74.609 z M 146.04500000000002 74.609 L 138.066 35 L 145.365 35 L 153.34300000000002 74.60900000000001 L 146.044 74.60900000000001 z M 155.77800000000002 74.609 L 152.21300000000002 56.897999999999996 L 156.626 35 L 163.869 35 L 155.891 74.60900000000001 L 155.778 74.60900000000001 z M 166.133 74.609 L 169.358 58.76499999999999 L 181.467 58.76499999999999 L 179.03400000000002 46.65599999999999 L 177.11 56.388999999999996 L 169.811 56.388999999999996 L 174.11 35 L 183.95600000000002 35 L 190.18 65.895 L 175.185 65.895 L 173.431 74.609 L 166.132 74.609 z M 184.693 74.609 L 183.39200000000002 68.27199999999999 L 190.69100000000003 68.27199999999999 L 191.93600000000004 74.609 L 184.69300000000004 74.609 z M 202.06400000000002 53.616 L 195.329 35 L 202.911 35 L 207.89000000000001 48.693 L 212.814 35 L 220.396 35 L 213.66199999999998 53.616 L 202.06199999999998 53.616 z M 195.33 74.609 L 202.06400000000002 55.992999999999995 L 213.66400000000002 55.992999999999995 L 220.39800000000002 74.609 L 212.81600000000003 74.609 L 207.89300000000003 60.916 L 202.91400000000002 74.609 L 195.33200000000002 74.609 z M 237.59900000000002 74.609 L 237.59900000000002 67.479 L 239.693 67.479 L 240.768 66.404 L 240.768 58.369 L 237.203 58.369 L 237.203 51.239 L 247.897 51.239 L 247.897 69.346 L 242.635 74.608 L 237.599 74.608 z M 230.186 74.609 L 224.924 69.347 L 224.924 60.745999999999995 L 232.054 60.745999999999995 L 232.054 66.404 L 233.129 67.479 L 235.22299999999998 67.479 L 235.22299999999998 74.609 L 230.18699999999998 74.609 z M 224.924 58.369 L 224.924 40.262 L 230.185 35 L 235.221 35 L 235.221 42.13 L 233.127 42.13 L 232.05200000000002 43.205000000000005 L 232.05200000000002 58.370000000000005 L 224.92200000000003 58.370000000000005 z M 240.768 47.675 L 240.768 43.205 L 239.693 42.129999999999995 L 237.59900000000002 42.129999999999995 L 237.59900000000002 35 L 242.63500000000002 35 L 247.89700000000002 40.262 L 247.89700000000002 47.675 L 240.76700000000002 47.675 z M 265.326 74.609 L 265.326 67.479 L 267.589 67.479 L 268.664 66.404 L 268.664 43.20399999999999 L 267.589 42.12899999999999 L 265.326 42.12899999999999 L 265.326 35 L 270.53200000000004 35 L 275.79400000000004 40.262 L 275.79400000000004 69.346 L 270.53200000000004 74.608 L 265.326 74.608 z M 257.687 74.609 L 252.425 69.347 L 252.425 40.262 L 257.685 35 L 262.891 35 L 262.891 42.13 L 260.62800000000004 42.13 L 259.55300000000005 43.205000000000005 L 259.55300000000005 66.405 L 260.62800000000004 67.48 L 262.891 67.48 L 262.891 74.61 L 257.685 74.61 z M 289.827 74.609 L 289.827 67.479 L 295.089 67.479 L 296.164 66.404 L 296.164 43.20399999999999 L 295.089 42.12899999999999 L 289.827 42.12899999999999 L 289.827 35 L 298.032 35 L 303.294 40.262 L 303.294 69.346 L 298.032 74.608 L 289.827 74.608 z M 280.321 74.609 L 280.321 35 L 287.451 35 L 287.451 74.60900000000001 L 280.321 74.60900000000001 z M 313.083 58.369 L 307.821 53.107 L 307.821 40.262 L 313.081 35 L 317.721 35 L 317.721 42.13 L 316.023 42.13 L 314.94800000000004 43.205000000000005 L 314.94800000000004 50.165000000000006 L 316.023 51.24000000000001 L 324.737 51.24000000000001 L 330 56.502 L 330 58.369 L 313.081 58.369 z M 313.083 74.609 L 307.821 69.347 L 307.821 61.934 L 314.951 61.934 L 314.951 66.404 L 316.026 67.479 L 321.798 67.479 L 322.873 66.404 L 322.873 60.745999999999995 L 330 60.745999999999995 L 330 69.347 L 324.738 74.609 L 313.082 74.609 z M 322.872 47.675 L 322.872 43.205 L 321.797 42.129999999999995 L 320.09900000000005 42.129999999999995 L 320.09900000000005 35 L 324.73900000000003 35 L 330 40.262 L 330 47.675 L 322.87 47.675 z" stroke-linecap="round" />
</g>
</g>
</g>
</svg>